<?xml version="1.0" encoding="UTF-8" standalone="no"?>
<!-- Created with Inkscape (http://www.inkscape.org/) -->

<svg
   xmlns:dc="http://purl.org/dc/elements/1.1/"
   xmlns:cc="http://creativecommons.org/ns#"
   xmlns:rdf="http://www.w3.org/1999/02/22-rdf-syntax-ns#"
   xmlns:svg="http://www.w3.org/2000/svg"
   xmlns="http://www.w3.org/2000/svg"
   xmlns:sodipodi="http://sodipodi.sourceforge.net/DTD/sodipodi-0.dtd"
   xmlns:inkscape="http://www.inkscape.org/namespaces/inkscape"
   width="1028.7035"
   height="1380.874"
   id="svg5908"
   version="1.1"
   inkscape:version="0.48.4 r9939"
   sodipodi:docname="Finaltimeoperator.pdf">
  <sodipodi:namedview
     id="base"
     pagecolor="#ffffff"
     bordercolor="#666666"
     borderopacity="1.0"
     inkscape:pageopacity="0.0"
     inkscape:pageshadow="2"
     inkscape:zoom="0.49497475"
     inkscape:cx="748.48816"
     inkscape:cy="474.65199"
     inkscape:document-units="px"
     inkscape:current-layer="layer1"
     showgrid="false"
     fit-margin-top="0"
     fit-margin-left="0"
     fit-margin-right="0"
     fit-margin-bottom="0"
     inkscape:window-width="1301"
     inkscape:window-height="744"
     inkscape:window-x="65"
     inkscape:window-y="24"
     inkscape:window-maximized="1" />
  <defs
     id="defs5910">
    <marker
       inkscape:stockid="Arrow1Lend"
       orient="auto"
       refY="0"
       refX="0"
       id="Arrow1Lend"
       style="overflow:visible">
      <path
         id="path5259"
         d="M 0,0 5,-5 -12.5,0 5,5 0,0 z"
         style="fill-rule:evenodd;stroke:#000000;stroke-width:1pt"
         transform="matrix(-0.8,0,0,-0.8,-10,0)"
         inkscape:connector-curvature="0" />
    </marker>
    <marker
       inkscape:stockid="Arrow1Lend"
       orient="auto"
       refY="0"
       refX="0"
       id="marker5928"
       style="overflow:visible">
      <path
         id="path5930"
         d="M 0,0 5,-5 -12.5,0 5,5 0,0 z"
         style="fill-rule:evenodd;stroke:#000000;stroke-width:1pt"
         transform="matrix(-0.8,0,0,-0.8,-10,0)"
         inkscape:connector-curvature="0" />
    </marker>
    <marker
       inkscape:stockid="Arrow1Lend"
       orient="auto"
       refY="0"
       refX="0"
       id="marker5932"
       style="overflow:visible">
      <path
         id="path5934"
         d="M 0,0 5,-5 -12.5,0 5,5 0,0 z"
         style="fill-rule:evenodd;stroke:#000000;stroke-width:1pt"
         transform="matrix(-0.8,0,0,-0.8,-10,0)"
         inkscape:connector-curvature="0" />
    </marker>
  </defs>
  <metadata
     id="metadata5913">
    <rdf:RDF>
      <cc:Work
         rdf:about="">
        <dc:format>image/svg+xml</dc:format>
        <dc:type
           rdf:resource="http://purl.org/dc/dcmitype/StillImage" />
        <dc:title></dc:title>
      </cc:Work>
    </rdf:RDF>
  </metadata>
  <g
     transform="translate(259.20246,219.65549)"
     id="layer1"
     inkscape:groupmode="layer"
     inkscape:label="Layer 1">
    <path
       inkscape:connector-curvature="0"
       id="path4945-0-8-1-6-7-2-1"
       d="m -185.20508,1141.198 c 836.33494,0 836.33494,0 836.33494,0"
       style="fill:none;stroke:#000000;stroke-width:0.99999994px;stroke-linecap:butt;stroke-linejoin:miter;stroke-opacity:1" />
    <path
       inkscape:connector-curvature="0"
       id="path4841-0-4-6-16-6"
       d="m 667.77874,549.86006 0,72.41913"
       style="fill:none;stroke:#000000;stroke-width:0.99999994px;stroke-linecap:butt;stroke-linejoin:miter;stroke-opacity:1" />
    <path
       inkscape:connector-curvature="0"
       id="path4945-0-8-4-3-4-4-0"
       d="m -189.24938,253.37383 c 846.13655,0 846.13655,0 846.13655,0"
       style="fill:none;stroke:#000000;stroke-width:0.99999994px;stroke-linecap:butt;stroke-linejoin:miter;stroke-opacity:1" />
    <path
       inkscape:connector-curvature="0"
       id="path4841-2-6-5"
       d="m 667.69774,207.44359 0,57.67453"
       style="fill:none;stroke:#000000;stroke-width:0.99999994px;stroke-linecap:butt;stroke-linejoin:miter;stroke-opacity:1" />
    <path
       inkscape:connector-curvature="0"
       id="path4841-3-2"
       d="m 664.96774,36.35491 0,57.67454"
       style="fill:#ff7f2a;stroke:#000000;stroke-width:0.99999994px;stroke-linecap:butt;stroke-linejoin:miter;stroke-opacity:1" />
    <path
       inkscape:connector-curvature="0"
       id="path4841-2-6-5-89"
       d="m 667.81724,262.52713 0,57.67453"
       style="fill:none;stroke:#000000;stroke-width:0.99999994px;stroke-linecap:butt;stroke-linejoin:miter;stroke-opacity:1" />
    <path
       inkscape:connector-curvature="0"
       id="path4945-82-5"
       d="m 141.33398,587.57025 c 197.16266,0 197.16266,0 197.16266,0"
       style="fill:none;stroke:#000000;stroke-width:0.99999994px;stroke-linecap:butt;stroke-linejoin:miter;stroke-opacity:1" />
    <path
       inkscape:connector-curvature="0"
       id="path4945-82-5-5"
       d="m 137.75173,420.91023 c 197.16271,0 197.16271,0 197.16271,0"
       style="fill:none;stroke:#000000;stroke-width:0.99999994px;stroke-linecap:butt;stroke-linejoin:miter;stroke-opacity:1" />
    <path
       inkscape:connector-curvature="0"
       id="path4945-82-5-5-4"
       d="m 144.41617,749.42169 c 197.16267,0 197.16267,0 197.16267,0"
       style="fill:none;stroke:#000000;stroke-width:0.99999994px;stroke-linecap:butt;stroke-linejoin:miter;stroke-opacity:1" />
    <path
       inkscape:connector-curvature="0"
       id="path4945-0-8-4-8-2"
       d="m -176.69537,145.26235 c 821.05386,0 821.05386,0 821.05386,0"
       style="fill:none;stroke:#000000;stroke-width:1px;stroke-linecap:butt;stroke-linejoin:miter;stroke-opacity:1" />
    <path
       inkscape:connector-curvature="0"
       id="path4945-0-8-4-3-8-7"
       d="m -177.40384,189.98823 c 831.50552,0 831.50552,0 831.50552,0"
       style="fill:none;stroke:#000000;stroke-width:0.99999994px;stroke-linecap:butt;stroke-linejoin:miter;stroke-opacity:1" />
    <path
       inkscape:connector-curvature="0"
       id="path4945-0-8-1-6"
       d="m -175.06062,83.99525 c 823.49714,0 823.49714,0 823.49714,0"
       style="fill:none;stroke:#000000;stroke-width:0.99999988px;stroke-linecap:butt;stroke-linejoin:miter;stroke-opacity:1" />
    <path
       inkscape:connector-curvature="0"
       id="path4945-0-5-6"
       d="m -173.42352,20.57013 c 822.92452,0 822.92452,0 822.92452,0"
       style="fill:none;stroke:#000000;stroke-width:0.99999994px;stroke-linecap:butt;stroke-linejoin:miter;stroke-opacity:1" />
    <path
       inkscape:connector-curvature="0"
       id="path4841-0-4-6"
       d="m 666.65314,99.51816 0,57.67456"
       style="fill:none;stroke:#000000;stroke-width:0.99999994px;stroke-linecap:butt;stroke-linejoin:miter;stroke-opacity:1" />
    <path
       transform="matrix(0.55195849,0,0,0.62111069,269.13465,66.16597)"
       d="m 745.71431,-69.066391 c 0,16.568543 -12.79186,30 -28.57143,30 -15.77956,0 -28.57142,-13.431457 -28.57142,-30 0,-16.568542 12.79186,-30 28.57142,-30 15.77957,0 28.57143,13.431458 28.57143,30 z"
       sodipodi:ry="30"
       sodipodi:rx="28.571428"
       sodipodi:cy="-69.066391"
       sodipodi:cx="717.14288"
       id="path4065-2-8"
       style="fill:#ff7f2a;fill-opacity:1;stroke:#ffffff;stroke-width:6.31922817;stroke-miterlimit:4;stroke-dasharray:none;stroke-dashoffset:6.3699997"
       sodipodi:type="arc" />
    <path
       d="m 745.71431,-69.066391 c 0,16.568543 -12.79186,30 -28.57143,30 -15.77956,0 -28.57142,-13.431457 -28.57142,-30 0,-16.568542 12.79186,-30 28.57142,-30 15.77957,0 28.57143,13.431458 28.57143,30 z"
       sodipodi:ry="30"
       sodipodi:rx="28.571428"
       sodipodi:cy="-69.066391"
       sodipodi:cx="717.14288"
       id="path4065-5-37-8"
       style="fill:#ff7f2a;fill-opacity:1;stroke:#ffffff;stroke-width:6.31922817;stroke-miterlimit:4;stroke-dasharray:none;stroke-dashoffset:6.3699997"
       sodipodi:type="arc"
       transform="matrix(0.55195849,0,0,0.62111069,271.23385,129.05202)" />
    <path
       inkscape:connector-curvature="0"
       id="path4841-7-9-4-5"
       d="m 664.98804,155.64504 0,57.67462"
       style="fill:none;stroke:#000000;stroke-width:0.99999994px;stroke-linecap:butt;stroke-linejoin:miter;stroke-opacity:1" />
    <path
       d="m 745.71431,-69.066391 c 0,16.568543 -12.79186,30 -28.57143,30 -15.77956,0 -28.57142,-13.431457 -28.57142,-30 0,-16.568542 12.79186,-30 28.57142,-30 15.77957,0 28.57143,13.431458 28.57143,30 z"
       sodipodi:ry="30"
       sodipodi:rx="28.571428"
       sodipodi:cy="-69.066391"
       sodipodi:cx="717.14288"
       id="path4065-0-2-4"
       style="fill:#ff7f2a;fill-opacity:1;stroke:#ffffff;stroke-width:6.31922817;stroke-miterlimit:4;stroke-dasharray:none;stroke-dashoffset:6.3699997"
       sodipodi:type="arc"
       transform="matrix(0.55195849,0,0,0.62111069,270.43605,237.13675)" />
    <path
       d="m 745.71431,-69.066391 c 0,16.568543 -12.79186,30 -28.57143,30 -15.77956,0 -28.57142,-13.431457 -28.57142,-30 0,-16.568542 12.79186,-30 28.57142,-30 15.77957,0 28.57143,13.431458 28.57143,30 z"
       sodipodi:ry="30"
       sodipodi:rx="28.571428"
       sodipodi:cy="-69.066391"
       sodipodi:cx="717.14288"
       id="path4065-5-3-6-9"
       style="fill:#ff7f2a;fill-opacity:1;stroke:#ffffff;stroke-width:6.31922817;stroke-miterlimit:4;stroke-dasharray:none;stroke-dashoffset:6.3699997"
       sodipodi:type="arc"
       transform="matrix(0.55195849,0,0,0.62111069,272.15035,299.10662)" />
    <path
       d="m 745.71431,-69.066391 c 0,16.568543 -12.79186,30 -28.57143,30 -15.77956,0 -28.57142,-13.431457 -28.57142,-30 0,-16.568542 12.79186,-30 28.57142,-30 15.77957,0 28.57143,13.431458 28.57143,30 z"
       sodipodi:ry="30"
       sodipodi:rx="28.571428"
       sodipodi:cy="-69.066391"
       sodipodi:cx="717.14288"
       id="path4065-5-0-4-0-4"
       style="fill:#ff7f2a;fill-opacity:1;stroke:#ffffff;stroke-width:6.31922817;stroke-miterlimit:4;stroke-dasharray:none;stroke-dashoffset:6.3699997"
       sodipodi:type="arc"
       transform="matrix(0.55195849,0,0,0.62111069,269.69425,188.71072)" />
    <path
       inkscape:connector-curvature="0"
       id="path4287-2-0-7-6-0"
       d="m 393.60724,582.16253 27.6721,0.0885"
       style="fill:none;stroke:#000000;stroke-width:0.96032083px;stroke-linecap:butt;stroke-linejoin:miter;stroke-opacity:1" />
    <rect
       transform="matrix(0.00319719,-0.99999489,0.99999489,0.00319719,0,0)"
       y="508.7449"
       x="-855.47906"
       height="42.496738"
       width="62.923027"
       id="rect4104-2"
       style="fill:#ff00ff;stroke:#800080;stroke-width:0.57095009;stroke-miterlimit:39.59999847;stroke-dasharray:none;stroke-dashoffset:0" />
    <path
       inkscape:connector-curvature="0"
       id="path4201-8"
       d="m 469.09418,862.75708 22.15196,-12.86061 15.1685,-0.86724"
       style="fill:none;stroke:#000000;stroke-width:0.73816079;stroke-linecap:butt;stroke-linejoin:miter;stroke-miterlimit:3.29999995;stroke-opacity:1;stroke-dasharray:none" />
    <path
       transform="matrix(0.66423992,0.01339944,-0.01052637,1.0401817,440.92895,712.79469)"
       inkscape:transform-center-y="-0.11946804"
       inkscape:transform-center-x="9.6677874"
       d="M 51.428574,83.402795 7.2779365,58.893174 -36.8727,34.383558 6.4285728,8.4027944 49.729841,-17.577971 50.579206,32.912413 z"
       inkscape:randomized="0"
       inkscape:rounded="0"
       inkscape:flatsided="false"
       sodipodi:arg2="2.0775744"
       sodipodi:arg1="1.0303768"
       sodipodi:r2="29.154758"
       sodipodi:r1="58.309521"
       sodipodi:cy="33.402794"
       sodipodi:cx="21.428572"
       sodipodi:sides="3"
       id="path3138-5-6"
       style="fill:#dd55ff;stroke:#000000;stroke-width:0.44891074;stroke-miterlimit:39.59999847;stroke-dasharray:none;stroke-dashoffset:0"
       sodipodi:type="star" />
    <path
       inkscape:connector-curvature="0"
       id="path4221-8"
       d="m 474.10994,797.82911 17.1041,10.0282 15.8671,0.051"
       style="fill:none;stroke:#000000;stroke-width:0.77506888;stroke-linecap:butt;stroke-linejoin:miter;stroke-miterlimit:3.29999995;stroke-opacity:1;stroke-dasharray:none" />
    <path
       transform="matrix(0.66423992,0.01339944,-0.01052637,1.0401817,444.59745,546.76377)"
       inkscape:transform-center-y="-0.11950096"
       inkscape:transform-center-x="9.6678003"
       d="M 51.428574,83.402795 7.2779365,58.893174 -36.8727,34.383558 6.4285728,8.4027944 49.729841,-17.577971 50.579206,32.912413 z"
       inkscape:randomized="0"
       inkscape:rounded="0"
       inkscape:flatsided="false"
       sodipodi:arg2="2.0775744"
       sodipodi:arg1="1.0303768"
       sodipodi:r2="29.154758"
       sodipodi:r1="58.309521"
       sodipodi:cy="33.402794"
       sodipodi:cx="21.428572"
       sodipodi:sides="3"
       id="path3138-5-3-89"
       style="fill:#dd55ff;stroke:#000000;stroke-width:0.44891074;stroke-miterlimit:39.59999847;stroke-dasharray:none;stroke-dashoffset:0"
       sodipodi:type="star" />
    <path
       inkscape:connector-curvature="0"
       id="path4285-9"
       d="m 549.50664,849.88731 29.7317,0.095"
       style="fill:none;stroke:#000000;stroke-width:0.9735384px;stroke-linecap:butt;stroke-linejoin:miter;stroke-opacity:1" />
    <path
       inkscape:connector-curvature="0"
       id="path4287-4"
       d="m 549.77884,805.93971 31.4507,0.1006"
       style="fill:none;stroke:#000000;stroke-width:1.02379119px;stroke-linecap:butt;stroke-linejoin:miter;stroke-opacity:1" />
    <rect
       transform="matrix(0.00319719,-0.99999489,0.99999489,0.00319719,0,0)"
       y="510.90665"
       x="-690.46417"
       height="42.496738"
       width="62.923027"
       id="rect4104-7-91"
       style="fill:#ff00ff;stroke:#800080;stroke-width:0.57095009;stroke-miterlimit:39.59999847;stroke-dasharray:none;stroke-dashoffset:0" />
    <path
       inkscape:connector-curvature="0"
       id="path4201-1-4"
       d="m 474.81384,694.71949 20.3532,-10.0217 13.9367,-0.6758"
       style="fill:none;stroke:#000000;stroke-width:0.73816079;stroke-linecap:butt;stroke-linejoin:miter;stroke-miterlimit:3.29999995;stroke-opacity:1;stroke-dasharray:none" />
    <path
       inkscape:connector-curvature="0"
       id="path4221-1-5"
       d="m 476.79894,632.82189 17.1045,10.0281 15.8668,0.051"
       style="fill:none;stroke:#000000;stroke-width:0.77506888;stroke-linecap:butt;stroke-linejoin:miter;stroke-miterlimit:3.29999995;stroke-opacity:1;stroke-dasharray:none" />
    <path
       inkscape:connector-curvature="0"
       id="path4285-2-7"
       d="m 552.19574,684.88009 29.7317,0.095"
       style="fill:none;stroke:#000000;stroke-width:0.9735384px;stroke-linecap:butt;stroke-linejoin:miter;stroke-opacity:1" />
    <path
       inkscape:connector-curvature="0"
       id="path4287-8-1"
       d="m 552.43534,640.93229 30.6948,0.098"
       style="fill:none;stroke:#000000;stroke-width:1.01141572px;stroke-linecap:butt;stroke-linejoin:miter;stroke-opacity:1" />
    <rect
       transform="matrix(0.00319719,-0.99999489,0.99999489,0.00319719,0,0)"
       y="514.17303"
       x="-525.61188"
       height="42.496738"
       width="62.923027"
       id="rect4104-9-8"
       style="fill:#ff00ff;stroke:#800080;stroke-width:0.57095009;stroke-miterlimit:39.59999847;stroke-dasharray:none;stroke-dashoffset:0" />
    <path
       inkscape:connector-curvature="0"
       id="path4201-12-6"
       d="m 478.60734,529.87852 20.3533,-10.02129 13.9367,-0.67595"
       style="fill:none;stroke:#000000;stroke-width:0.73816079;stroke-linecap:butt;stroke-linejoin:miter;stroke-miterlimit:3.29999995;stroke-opacity:1;stroke-dasharray:none" />
    <path
       transform="matrix(0.66423992,0.01339944,-0.01052637,1.0401817,447.41165,382.94653)"
       inkscape:transform-center-y="-0.11952711"
       inkscape:transform-center-x="9.6678184"
       d="M 51.428574,83.402795 7.2779365,58.893174 -36.8727,34.383558 6.4285728,8.4027944 49.729841,-17.577971 50.579206,32.912413 z"
       inkscape:randomized="0"
       inkscape:rounded="0"
       inkscape:flatsided="false"
       sodipodi:arg2="2.0775744"
       sodipodi:arg1="1.0303768"
       sodipodi:r2="29.154758"
       sodipodi:r1="58.309521"
       sodipodi:cy="33.402794"
       sodipodi:cx="21.428572"
       sodipodi:sides="3"
       id="path3138-5-9-98"
       style="fill:#dd55ff;stroke:#000000;stroke-width:0.44891074;stroke-miterlimit:39.59999847;stroke-dasharray:none;stroke-dashoffset:0"
       sodipodi:type="star" />
    <path
       inkscape:connector-curvature="0"
       id="path4221-3-0"
       d="m 480.59264,467.98099 17.1042,10.02818 15.8669,0.051"
       style="fill:none;stroke:#000000;stroke-width:0.77506888;stroke-linecap:butt;stroke-linejoin:miter;stroke-miterlimit:3.29999995;stroke-opacity:1;stroke-dasharray:none" />
    <path
       inkscape:connector-curvature="0"
       id="path4285-24-2"
       d="m 555.85924,520.03912 26.7076,0.0855"
       style="fill:#ff5555;stroke:#000000;stroke-width:0.92270106px;stroke-linecap:butt;stroke-linejoin:miter;stroke-opacity:1" />
    <path
       inkscape:connector-curvature="0"
       id="path4287-9-5"
       d="m 556.09804,476.09115 27.672,0.0885"
       style="fill:#ff5555;stroke:#000000;stroke-width:0.96032083px;stroke-linecap:butt;stroke-linejoin:miter;stroke-opacity:1" />
    <rect
       transform="matrix(0.00319719,-0.99999489,0.99999489,0.00319719,0,0)"
       y="516.33502"
       x="-360.59717"
       height="42.496738"
       width="62.923027"
       id="rect4104-7-9-7"
       style="fill:#ff00ff;stroke:#800080;stroke-width:0.57095009;stroke-miterlimit:39.59999847;stroke-dasharray:none;stroke-dashoffset:0" />
    <path
       inkscape:connector-curvature="0"
       id="path4201-1-6-4"
       d="m 481.29654,364.87139 20.3531,-10.02178 13.9367,-0.67574"
       style="fill:none;stroke:#000000;stroke-width:0.73816079;stroke-linecap:butt;stroke-linejoin:miter;stroke-miterlimit:3.29999995;stroke-opacity:1;stroke-dasharray:none" />
    <path
       inkscape:connector-curvature="0"
       id="path4221-1-0-6"
       d="m 483.28174,302.97377 17.1044,10.02819 15.8666,0.051"
       style="fill:none;stroke:#000000;stroke-width:0.77506888;stroke-linecap:butt;stroke-linejoin:miter;stroke-miterlimit:3.29999995;stroke-opacity:1;stroke-dasharray:none" />
    <path
       inkscape:connector-curvature="0"
       id="path4285-2-1-1"
       d="m 558.54834,355.03171 26.7074,0.0852"
       style="fill:#ff5555;stroke:#000000;stroke-width:0.92270106px;stroke-linecap:butt;stroke-linejoin:miter;stroke-opacity:1" />
    <path
       inkscape:connector-curvature="0"
       id="path4287-8-5-2"
       d="m 558.78724,311.08384 27.6721,0.0886"
       style="fill:#ff5555;stroke:#000000;stroke-width:0.96032083px;stroke-linecap:butt;stroke-linejoin:miter;stroke-opacity:1" />
    <path
       inkscape:connector-curvature="0"
       id="path4289-4-40"
       d="m 474.71184,746.13959 107.1402,0.3425"
       style="fill:none;stroke:#000000;stroke-width:0.93685675px;stroke-linecap:butt;stroke-linejoin:miter;stroke-opacity:1" />
    <path
       inkscape:connector-curvature="0"
       id="path4289-4-4-2"
       d="m 478.13744,583.2662 103.9271,0.33226"
       style="fill:none;stroke:#000000;stroke-width:0.92270106px;stroke-linecap:butt;stroke-linejoin:miter;stroke-opacity:1" />
    <path
       inkscape:connector-curvature="0"
       id="path4287-2-0-7-67"
       d="m 388.59184,748.09739 27.6719,0.088"
       style="fill:none;stroke:#000000;stroke-width:0.96032083px;stroke-linecap:butt;stroke-linejoin:miter;stroke-opacity:1" />
    <path
       inkscape:connector-curvature="0"
       id="path4287-2-0-7-1-1-4"
       d="m 395.03404,417.99571 27.6718,0.0885"
       style="fill:none;stroke:#000000;stroke-width:0.96032083px;stroke-linecap:butt;stroke-linejoin:miter;stroke-opacity:1" />
    <path
       inkscape:connector-curvature="0"
       id="path4289-4-4-5-0-4"
       d="m 477.62754,422.81249 107.341,0.34333"
       style="fill:#dd55ff;stroke:#000000;stroke-width:0.93773168px;stroke-linecap:butt;stroke-linejoin:miter;stroke-opacity:1" />
    <rect
       transform="matrix(0,1,1,0,0,0)"
       y="202.7227"
       x="395.90146"
       height="79.639595"
       width="377.20874"
       id="rect4104-9-8-3"
       style="fill:#ff00ff;stroke:#800080;stroke-width:0.57095009;stroke-miterlimit:39.59999847;stroke-dasharray:none;stroke-dashoffset:0" />
    <path
       inkscape:connector-curvature="0"
       id="path4841-3-2-8"
       d="m 667.79644,377.5261 0,57.67454"
       style="fill:#ff7f2a;stroke:#000000;stroke-width:0.99999994px;stroke-linecap:butt;stroke-linejoin:miter;stroke-opacity:1" />
    <path
       inkscape:connector-curvature="0"
       id="path4945-0-8-4-8-2-8"
       d="m 609.20274,478.43355 c 46.3424,0 46.3424,0 46.3424,0"
       style="fill:none;stroke:#000000;stroke-width:0.99999994px;stroke-linecap:butt;stroke-linejoin:miter;stroke-opacity:1" />
    <path
       inkscape:connector-curvature="0"
       id="path4945-0-8-4-3-8-7-0"
       d="m 610.24134,525.15943 c 54.8005,0 54.8005,0 54.8005,0"
       style="fill:none;stroke:#000000;stroke-width:0.99999994px;stroke-linecap:butt;stroke-linejoin:miter;stroke-opacity:1" />
    <path
       inkscape:connector-curvature="0"
       id="path4945-0-8-1-6-7"
       d="m 609.09934,425.16644 c 49.4057,0 49.4057,0 49.4057,0"
       style="fill:none;stroke:#000000;stroke-width:0.99999994px;stroke-linecap:butt;stroke-linejoin:miter;stroke-opacity:1" />
    <path
       inkscape:connector-curvature="0"
       id="path4945-0-5-6-9"
       d="m 608.97014,359.74132 c 50.9373,0 50.9373,0 50.9373,0"
       style="fill:none;stroke:#000000;stroke-width:0.99999994px;stroke-linecap:butt;stroke-linejoin:miter;stroke-opacity:1" />
    <path
       inkscape:connector-curvature="0"
       id="path4945-1-0-3"
       d="m 614.27514,311.37098 c 55.5325,0 55.5325,0 55.5325,0"
       style="fill:none;stroke:#000000;stroke-width:0.99999994px;stroke-linecap:butt;stroke-linejoin:miter;stroke-opacity:1" />
    <path
       inkscape:connector-curvature="0"
       id="path4841-0-4-6-1"
       d="m 669.48184,440.68935 0,57.67457"
       style="fill:none;stroke:#000000;stroke-width:0.99999994px;stroke-linecap:butt;stroke-linejoin:miter;stroke-opacity:1" />
    <path
       inkscape:connector-curvature="0"
       id="path4841-7-8-9-8"
       d="m 666.37244,323.90371 0,45.03651"
       style="fill:none;stroke:#000000;stroke-width:0.99999994px;stroke-linecap:butt;stroke-linejoin:miter;stroke-opacity:1" />
    <path
       transform="matrix(0.55195849,0,0,0.62111069,271.96335,405.33717)"
       d="m 745.71431,-69.066391 c 0,16.568543 -12.79186,30 -28.57143,30 -15.77956,0 -28.57142,-13.431457 -28.57142,-30 0,-16.568542 12.79186,-30 28.57142,-30 15.77957,0 28.57143,13.431458 28.57143,30 z"
       sodipodi:ry="30"
       sodipodi:rx="28.571428"
       sodipodi:cy="-69.066391"
       sodipodi:cx="717.14288"
       id="path4065-2-8-0"
       style="fill:#ff7f2a;fill-opacity:1;stroke:#ffffff;stroke-width:6.31922817;stroke-miterlimit:4;stroke-dasharray:none;stroke-dashoffset:6.3699997"
       sodipodi:type="arc" />
    <path
       d="m 745.71431,-69.066391 c 0,16.568543 -12.79186,30 -28.57143,30 -15.77956,0 -28.57142,-13.431457 -28.57142,-30 0,-16.568542 12.79186,-30 28.57142,-30 15.77957,0 28.57143,13.431458 28.57143,30 z"
       sodipodi:ry="30"
       sodipodi:rx="28.571428"
       sodipodi:cy="-69.066391"
       sodipodi:cx="717.14288"
       id="path4065-5-37-8-2"
       style="fill:#ff7f2a;fill-opacity:1;stroke:#ffffff;stroke-width:6.31922817;stroke-miterlimit:4;stroke-dasharray:none;stroke-dashoffset:6.3699997"
       sodipodi:type="arc"
       transform="matrix(0.55195849,0,0,0.62111069,274.06255,470.22322)" />
    <path
       d="m 745.71431,-69.066391 c 0,16.568543 -12.79186,30 -28.57143,30 -15.77956,0 -28.57142,-13.431457 -28.57142,-30 0,-16.568542 12.79186,-30 28.57142,-30 15.77957,0 28.57143,13.431458 28.57143,30 z"
       sodipodi:ry="30"
       sodipodi:rx="28.571428"
       sodipodi:cy="-69.066391"
       sodipodi:cx="717.14288"
       id="path4065-5-0-45-2-4"
       style="fill:#ff7f2a;fill-opacity:1;stroke:#ffffff;stroke-width:6.31922817;stroke-miterlimit:4;stroke-dasharray:none;stroke-dashoffset:6.3699997"
       sodipodi:type="arc"
       transform="matrix(0.55195849,0,0,0.62111069,270.70175,355.51289)" />
    <path
       inkscape:connector-curvature="0"
       id="path4841-7-9-4-5-1"
       d="m 667.81674,496.81624 0,57.67462"
       style="fill:none;stroke:#000000;stroke-width:0.99999994px;stroke-linecap:butt;stroke-linejoin:miter;stroke-opacity:1" />
    <path
       d="m 745.71431,-69.066391 c 0,16.568543 -12.79186,30 -28.57143,30 -15.77956,0 -28.57142,-13.431457 -28.57142,-30 0,-16.568542 12.79186,-30 28.57142,-30 15.77957,0 28.57143,13.431458 28.57143,30 z"
       sodipodi:ry="30"
       sodipodi:rx="28.571428"
       sodipodi:cy="-69.066391"
       sodipodi:cx="717.14288"
       id="path4065-0-2-4-6"
       style="fill:#ff7f2a;fill-opacity:1;stroke:#ffffff;stroke-width:6.31922817;stroke-miterlimit:4;stroke-dasharray:none;stroke-dashoffset:6.3699997"
       sodipodi:type="arc"
       transform="matrix(0.55195849,0,0,0.62111069,273.26475,570.30795)" />
    <path
       d="m 745.71431,-69.066391 c 0,16.568543 -12.79186,30 -28.57143,30 -15.77956,0 -28.57142,-13.431457 -28.57142,-30 0,-16.568542 12.79186,-30 28.57142,-30 15.77957,0 28.57143,13.431458 28.57143,30 z"
       sodipodi:ry="30"
       sodipodi:rx="28.571428"
       sodipodi:cy="-69.066391"
       sodipodi:cx="717.14288"
       id="path4065-5-0-4-0-4-9"
       style="fill:#ff7f2a;fill-opacity:1;stroke:#ffffff;stroke-width:6.31922817;stroke-miterlimit:4;stroke-dasharray:none;stroke-dashoffset:6.3699997"
       sodipodi:type="arc"
       transform="matrix(0.55195849,0,0,0.62111069,272.52295,523.88192)" />
    <path
       inkscape:connector-curvature="0"
       id="path4945-0-8-4-3-4-4-0-6"
       d="m -181.73559,913.12501 c 843.36579,0 843.36579,0 843.36579,0"
       style="fill:none;stroke:#000000;stroke-width:1px;stroke-linecap:butt;stroke-linejoin:miter;stroke-opacity:1" />
    <path
       inkscape:connector-curvature="0"
       id="path4841-2-6-5-88"
       d="m 671.68344,877.19471 0,57.6746"
       style="fill:none;stroke:#000000;stroke-width:0.99999994px;stroke-linecap:butt;stroke-linejoin:miter;stroke-opacity:1" />
    <path
       inkscape:connector-curvature="0"
       id="path4841-3-2-2"
       d="m 668.95344,706.10609 0,57.6745"
       style="fill:#ff7f2a;stroke:#000000;stroke-width:0.99999994px;stroke-linecap:butt;stroke-linejoin:miter;stroke-opacity:1" />
    <path
       inkscape:connector-curvature="0"
       id="path4841-2-6-5-89-3"
       d="m 671.80294,932.27831 0,57.6745"
       style="fill:none;stroke:#000000;stroke-width:0.99999994px;stroke-linecap:butt;stroke-linejoin:miter;stroke-opacity:1" />
    <path
       inkscape:connector-curvature="0"
       id="path4945-0-8-4-8-2-2"
       d="m 610.35974,807.01351 c 46.3424,0 46.3424,0 46.3424,0"
       style="fill:none;stroke:#000000;stroke-width:0.99999994px;stroke-linecap:butt;stroke-linejoin:miter;stroke-opacity:1" />
    <path
       inkscape:connector-curvature="0"
       id="path4945-0-8-4-3-8-7-6"
       d="m 618.39714,853.73941 c 47.8741,0 47.8741,0 47.8741,0"
       style="fill:none;stroke:#000000;stroke-width:0.99999994px;stroke-linecap:butt;stroke-linejoin:miter;stroke-opacity:1" />
    <path
       inkscape:connector-curvature="0"
       id="path4945-0-8-1-6-82"
       d="m 610.25634,749.74639 c 49.4057,0 49.4057,0 49.4057,0"
       style="fill:none;stroke:#000000;stroke-width:0.99999994px;stroke-linecap:butt;stroke-linejoin:miter;stroke-opacity:1" />
    <path
       inkscape:connector-curvature="0"
       id="path4945-0-5-6-1"
       d="m 610.12714,690.32129 c 50.9373,0 50.9373,0 50.9373,0"
       style="fill:none;stroke:#000000;stroke-width:0.99999994px;stroke-linecap:butt;stroke-linejoin:miter;stroke-opacity:1" />
    <path
       inkscape:connector-curvature="0"
       id="path4945-1-0-7"
       d="m 615.43214,637.95089 c 55.5325,0 55.5325,0 55.5325,0"
       style="fill:none;stroke:#000000;stroke-width:0.99999994px;stroke-linecap:butt;stroke-linejoin:miter;stroke-opacity:1" />
    <path
       inkscape:connector-curvature="0"
       id="path4841-0-4-6-16"
       d="m 670.63884,769.26929 0,57.67462"
       style="fill:none;stroke:#000000;stroke-width:0.99999994px;stroke-linecap:butt;stroke-linejoin:miter;stroke-opacity:1" />
    <path
       inkscape:connector-curvature="0"
       id="path4841-7-8-9-2"
       d="m 667.52944,652.48369 0,45.0365"
       style="fill:none;stroke:#000000;stroke-width:0.99999994px;stroke-linecap:butt;stroke-linejoin:miter;stroke-opacity:1" />
    <path
       transform="matrix(0.55195849,0,0,0.62111069,273.12035,735.91709)"
       d="m 745.71431,-69.066391 c 0,16.568543 -12.79186,30 -28.57143,30 -15.77956,0 -28.57142,-13.431457 -28.57142,-30 0,-16.568542 12.79186,-30 28.57142,-30 15.77957,0 28.57143,13.431458 28.57143,30 z"
       sodipodi:ry="30"
       sodipodi:rx="28.571428"
       sodipodi:cy="-69.066391"
       sodipodi:cx="717.14288"
       id="path4065-2-8-16"
       style="fill:#ff7f2a;fill-opacity:1;stroke:#ffffff;stroke-width:6.31922817;stroke-miterlimit:4;stroke-dasharray:none;stroke-dashoffset:6.3699997"
       sodipodi:type="arc" />
    <path
       d="m 745.71431,-69.066391 c 0,16.568543 -12.79186,30 -28.57143,30 -15.77956,0 -28.57142,-13.431457 -28.57142,-30 0,-16.568542 12.79186,-30 28.57142,-30 15.77957,0 28.57143,13.431458 28.57143,30 z"
       sodipodi:ry="30"
       sodipodi:rx="28.571428"
       sodipodi:cy="-69.066391"
       sodipodi:cx="717.14288"
       id="path4065-5-37-8-41"
       style="fill:#ff7f2a;fill-opacity:1;stroke:#ffffff;stroke-width:6.31922817;stroke-miterlimit:4;stroke-dasharray:none;stroke-dashoffset:6.3699997"
       sodipodi:type="arc"
       transform="matrix(0.55195849,0,0,0.62111069,275.21955,794.80321)" />
    <path
       d="m 745.71431,-69.066391 c 0,16.568543 -12.79186,30 -28.57143,30 -15.77956,0 -28.57142,-13.431457 -28.57142,-30 0,-16.568542 12.79186,-30 28.57142,-30 15.77957,0 28.57143,13.431458 28.57143,30 z"
       sodipodi:ry="30"
       sodipodi:rx="28.571428"
       sodipodi:cy="-69.066391"
       sodipodi:cx="717.14288"
       id="path4065-5-0-45-2-6"
       style="fill:#ff7f2a;fill-opacity:1;stroke:#ffffff;stroke-width:6.31922817;stroke-miterlimit:4;stroke-dasharray:none;stroke-dashoffset:6.3699997"
       sodipodi:type="arc"
       transform="matrix(0.55195849,0,0,0.62111069,271.85875,682.09289)" />
    <path
       inkscape:connector-curvature="0"
       id="path4841-7-9-4-5-49"
       d="m 668.97374,825.39621 0,57.6746"
       style="fill:none;stroke:#000000;stroke-width:0.99999994px;stroke-linecap:butt;stroke-linejoin:miter;stroke-opacity:1" />
    <path
       d="m 745.71431,-69.066391 c 0,16.568543 -12.79186,30 -28.57143,30 -15.77956,0 -28.57142,-13.431457 -28.57142,-30 0,-16.568542 12.79186,-30 28.57142,-30 15.77957,0 28.57143,13.431458 28.57143,30 z"
       sodipodi:ry="30"
       sodipodi:rx="28.571428"
       sodipodi:cy="-69.066391"
       sodipodi:cx="717.14288"
       id="path4065-0-2-4-7"
       style="fill:#ff7f2a;fill-opacity:1;stroke:#ffffff;stroke-width:6.31922817;stroke-miterlimit:4;stroke-dasharray:none;stroke-dashoffset:6.3699997"
       sodipodi:type="arc"
       transform="matrix(0.55195849,0,0,0.62111069,274.42175,898.88791)" />
    <path
       d="m 745.71431,-69.066391 c 0,16.568543 -12.79186,30 -28.57143,30 -15.77956,0 -28.57142,-13.431457 -28.57142,-30 0,-16.568542 12.79186,-30 28.57142,-30 15.77957,0 28.57143,13.431458 28.57143,30 z"
       sodipodi:ry="30"
       sodipodi:rx="28.571428"
       sodipodi:cy="-69.066391"
       sodipodi:cx="717.14288"
       id="path4065-5-3-6-9-9"
       style="fill:#ff7f2a;fill-opacity:1;stroke:#ffffff;stroke-width:6.31922817;stroke-miterlimit:4;stroke-dasharray:none;stroke-dashoffset:6.3699997"
       sodipodi:type="arc"
       transform="matrix(0.55195849,0,0,0.62111069,276.13605,956.85781)" />
    <path
       d="m 745.71431,-69.066391 c 0,16.568543 -12.79186,30 -28.57143,30 -15.77956,0 -28.57142,-13.431457 -28.57142,-30 0,-16.568542 12.79186,-30 28.57142,-30 15.77957,0 28.57143,13.431458 28.57143,30 z"
       sodipodi:ry="30"
       sodipodi:rx="28.571428"
       sodipodi:cy="-69.066391"
       sodipodi:cx="717.14288"
       id="path4065-5-0-4-0-4-2"
       style="fill:#ff7f2a;fill-opacity:1;stroke:#ffffff;stroke-width:6.31922817;stroke-miterlimit:4;stroke-dasharray:none;stroke-dashoffset:6.3699997"
       sodipodi:type="arc"
       transform="matrix(0.55195849,0,0,0.62111069,273.67995,852.46191)" />
    <path
       inkscape:connector-curvature="0"
       id="path4841-3-2-8-6"
       d="m 673.78214,1047.3869 0,70.3125"
       style="fill:#ff7f2a;stroke:#000000;stroke-width:0.99999994px;stroke-linecap:butt;stroke-linejoin:miter;stroke-opacity:1" />
    <path
       inkscape:connector-curvature="0"
       id="path4945-0-8-1-6-7-2"
       d="m -193.1233,1078.9176 c 847.5368,0 847.5368,0 847.5368,0"
       style="fill:none;stroke:#000000;stroke-width:0.99999994px;stroke-linecap:butt;stroke-linejoin:miter;stroke-opacity:1" />
    <path
       inkscape:connector-curvature="0"
       id="path4945-0-5-6-9-2"
       d="m -183.58684,1019.4925 c 839.7373,0 839.7373,0 839.7373,0"
       style="fill:none;stroke:#000000;stroke-width:0.99999988px;stroke-linecap:butt;stroke-linejoin:miter;stroke-opacity:1" />
    <path
       inkscape:connector-curvature="0"
       id="path4945-1-0-3-4"
       d="m -195.90248,971.12211 c 862.43088,0 862.43088,0 862.43088,0"
       style="fill:none;stroke:#000000;stroke-width:1px;stroke-linecap:butt;stroke-linejoin:miter;stroke-opacity:1" />
    <path
       inkscape:connector-curvature="0"
       id="path4841-0-4-6-1-1"
       d="m 673.46754,1110.2457 0,35.207"
       style="fill:none;stroke:#000000;stroke-width:1px;stroke-linecap:butt;stroke-linejoin:miter;stroke-opacity:1" />
    <path
       inkscape:connector-curvature="0"
       id="path4841-7-8-9-8-0"
       d="m 670.35814,993.65491 0,45.03649"
       style="fill:none;stroke:#000000;stroke-width:0.99999994px;stroke-linecap:butt;stroke-linejoin:miter;stroke-opacity:1" />
    <path
       transform="matrix(0.55195849,0,0,0.62111069,275.94905,1065.0883)"
       d="m 745.71431,-69.066391 c 0,16.568543 -12.79186,30 -28.57143,30 -15.77956,0 -28.57142,-13.431457 -28.57142,-30 0,-16.568542 12.79186,-30 28.57142,-30 15.77957,0 28.57143,13.431458 28.57143,30 z"
       sodipodi:ry="30"
       sodipodi:rx="28.571428"
       sodipodi:cy="-69.066391"
       sodipodi:cx="717.14288"
       id="path4065-2-8-0-3"
       style="fill:#ff7f2a;fill-opacity:1;stroke:#ffffff;stroke-width:6.31922817;stroke-miterlimit:4;stroke-dasharray:none;stroke-dashoffset:6.3699997"
       sodipodi:type="arc" />
    <path
       d="m 745.71431,-69.066391 c 0,16.568543 -12.79186,30 -28.57143,30 -15.77956,0 -28.57142,-13.431457 -28.57142,-30 0,-16.568542 12.79186,-30 28.57142,-30 15.77957,0 28.57143,13.431458 28.57143,30 z"
       sodipodi:ry="30"
       sodipodi:rx="28.571428"
       sodipodi:cy="-69.066391"
       sodipodi:cx="717.14288"
       id="path4065-5-37-8-2-9"
       style="fill:#ff7f2a;fill-opacity:1;stroke:#ffffff;stroke-width:6.31922817;stroke-miterlimit:4;stroke-dasharray:none;stroke-dashoffset:6.3699997"
       sodipodi:type="arc"
       transform="matrix(0.55195849,0,0,0.62111069,278.04825,1123.9744)" />
    <path
       d="m 745.71431,-69.066391 c 0,16.568543 -12.79186,30 -28.57143,30 -15.77956,0 -28.57142,-13.431457 -28.57142,-30 0,-16.568542 12.79186,-30 28.57142,-30 15.77957,0 28.57143,13.431458 28.57143,30 z"
       sodipodi:ry="30"
       sodipodi:rx="28.571428"
       sodipodi:cy="-69.066391"
       sodipodi:cx="717.14288"
       id="path4065-5-0-45-2-4-2"
       style="fill:#ff7f2a;fill-opacity:1;stroke:#ffffff;stroke-width:6.31922817;stroke-miterlimit:4;stroke-dasharray:none;stroke-dashoffset:6.3699997"
       sodipodi:type="arc"
       transform="matrix(0.55195849,0,0,0.62111069,274.68745,1015.264)" />
    <path
       d="m 745.71431,-69.066391 c 0,16.568543 -12.79186,30 -28.57143,30 -15.77956,0 -28.57142,-13.431457 -28.57142,-30 0,-16.568542 12.79186,-30 28.57142,-30 15.77957,0 28.57143,13.431458 28.57143,30 z"
       sodipodi:ry="30"
       sodipodi:rx="28.571428"
       sodipodi:cy="-69.066391"
       sodipodi:cx="717.14288"
       id="path4065-5-0-4-0-4-9-8"
       style="fill:#ff7f2a;fill-opacity:1;stroke:#ffffff;stroke-width:6.31922817;stroke-miterlimit:4;stroke-dasharray:none;stroke-dashoffset:6.3699997"
       sodipodi:type="arc"
       transform="matrix(0.55195849,0,0,0.62111069,276.50865,1183.6331)" />
    <path
       d="m 745.71431,-69.066391 c 0,16.568543 -12.79186,30 -28.57143,30 -15.77956,0 -28.57142,-13.431457 -28.57142,-30 0,-16.568542 12.79186,-30 28.57142,-30 15.77957,0 28.57143,13.431458 28.57143,30 z"
       sodipodi:ry="30"
       sodipodi:rx="28.571428"
       sodipodi:cy="-69.066391"
       sodipodi:cx="717.14288"
       id="path4065-5-0-4-0-4-9-6"
       style="fill:#ff7f2a;fill-opacity:1;stroke:#ffffff;stroke-width:6.31922817;stroke-miterlimit:4;stroke-dasharray:none;stroke-dashoffset:6.3699997"
       sodipodi:type="arc"
       transform="matrix(0.55195849,0,0,0.62111069,272.87425,626.19609)" />
    <path
       inkscape:connector-curvature="0"
       id="path4945-0-8-4-3-8-7-0-9"
       d="m 608.67074,583.12697 c 47.8741,0 47.8741,0 47.8741,0"
       style="fill:none;stroke:#000000;stroke-width:0.99999994px;stroke-linecap:butt;stroke-linejoin:miter;stroke-opacity:1" />
    <path
       inkscape:connector-curvature="0"
       id="path4287-2-0-7-6-0-1"
       d="m 84.6873,585.32379 -27.672104,0.088"
       style="fill:none;stroke:#000000;stroke-width:0.96032083px;stroke-linecap:butt;stroke-linejoin:miter;stroke-opacity:1" />
    <rect
       transform="matrix(-0.00319719,-0.99999489,-0.99999489,0.00319719,0,0)"
       y="30.462141"
       x="-860.16852"
       height="42.496738"
       width="62.923027"
       id="rect4104-2-4"
       style="fill:#ff00ff;stroke:#800080;stroke-width:0.57095009;stroke-miterlimit:39.59999847;stroke-dasharray:none;stroke-dashoffset:0" />
    <path
       inkscape:connector-curvature="0"
       id="path4201-8-96"
       d="m 6.1699357,862.88791 -20.3531997,-10.0216 -13.9368,-0.6758"
       style="fill:none;stroke:#000000;stroke-width:0.73816079;stroke-linecap:butt;stroke-linejoin:miter;stroke-miterlimit:3.29999995;stroke-opacity:1;stroke-dasharray:none" />
    <path
       transform="matrix(-0.66423992,0.01339944,0.01052637,1.0401817,37.365606,715.95599)"
       inkscape:transform-center-y="-0.11946804"
       inkscape:transform-center-x="-9.6677923"
       d="M 51.428574,83.402795 7.2779365,58.893174 -36.8727,34.383558 6.4285728,8.4027944 49.729841,-17.577971 50.579206,32.912413 z"
       inkscape:randomized="0"
       inkscape:rounded="0"
       inkscape:flatsided="false"
       sodipodi:arg2="2.0775744"
       sodipodi:arg1="1.0303768"
       sodipodi:r2="29.154758"
       sodipodi:r1="58.309521"
       sodipodi:cy="33.402794"
       sodipodi:cx="21.428572"
       sodipodi:sides="3"
       id="path3138-5-6-3"
       style="fill:#dd55ff;stroke:#000000;stroke-width:0.44891074;stroke-miterlimit:39.59999847;stroke-dasharray:none;stroke-dashoffset:0"
       sodipodi:type="star" />
    <path
       inkscape:connector-curvature="0"
       id="path4221-8-5"
       d="m 4.1846357,800.99041 -17.1040997,10.0282 -15.8671,0.051"
       style="fill:none;stroke:#000000;stroke-width:0.77506888;stroke-linecap:butt;stroke-linejoin:miter;stroke-miterlimit:3.29999995;stroke-opacity:1;stroke-dasharray:none" />
    <path
       transform="matrix(-0.66423992,0.01339944,0.01052637,1.0401817,33.697106,549.92509)"
       inkscape:transform-center-y="-0.11950096"
       inkscape:transform-center-x="-9.6678052"
       d="M 51.428574,83.402795 7.2779365,58.893174 -36.8727,34.383558 6.4285728,8.4027944 49.729841,-17.577971 50.579206,32.912413 z"
       inkscape:randomized="0"
       inkscape:rounded="0"
       inkscape:flatsided="false"
       sodipodi:arg2="2.0775744"
       sodipodi:arg1="1.0303768"
       sodipodi:r2="29.154758"
       sodipodi:r1="58.309521"
       sodipodi:cy="33.402794"
       sodipodi:cx="21.428572"
       sodipodi:sides="3"
       id="path3138-5-3-89-4"
       style="fill:#dd55ff;stroke:#000000;stroke-width:0.44891074;stroke-miterlimit:39.59999847;stroke-dasharray:none;stroke-dashoffset:0"
       sodipodi:type="star" />
    <path
       inkscape:connector-curvature="0"
       id="path4285-9-4"
       d="m -71.212064,853.04861 -29.731686,0.095"
       style="fill:none;stroke:#000000;stroke-width:0.9735384px;stroke-linecap:butt;stroke-linejoin:miter;stroke-opacity:1" />
    <path
       inkscape:connector-curvature="0"
       id="path4287-4-0"
       d="m -71.484264,809.10101 -31.450686,0.1006"
       style="fill:none;stroke:#000000;stroke-width:1.02379119px;stroke-linecap:butt;stroke-linejoin:miter;stroke-opacity:1" />
    <rect
       transform="matrix(-0.00319719,-0.99999489,-0.99999489,0.00319719,0,0)"
       y="32.623886"
       x="-695.15369"
       height="42.496738"
       width="62.923027"
       id="rect4104-7-91-7"
       style="fill:#ff00ff;stroke:#800080;stroke-width:0.57095009;stroke-miterlimit:39.59999847;stroke-dasharray:none;stroke-dashoffset:0" />
    <path
       inkscape:connector-curvature="0"
       id="path4201-1-4-3"
       d="m 3.4807357,697.88079 -20.3531997,-10.0217 -13.9367,-0.6758"
       style="fill:none;stroke:#000000;stroke-width:0.73816079;stroke-linecap:butt;stroke-linejoin:miter;stroke-miterlimit:3.29999995;stroke-opacity:1;stroke-dasharray:none" />
    <path
       inkscape:connector-curvature="0"
       id="path4221-1-5-0"
       d="m 1.4956357,635.98319 -17.1044997,10.0281 -15.8668,0.051"
       style="fill:none;stroke:#000000;stroke-width:0.77506888;stroke-linecap:butt;stroke-linejoin:miter;stroke-miterlimit:3.29999995;stroke-opacity:1;stroke-dasharray:none" />
    <path
       inkscape:connector-curvature="0"
       id="path4285-2-7-9"
       d="m -73.901164,688.04139 -29.731686,0.095"
       style="fill:none;stroke:#000000;stroke-width:0.9735384px;stroke-linecap:butt;stroke-linejoin:miter;stroke-opacity:1" />
    <path
       inkscape:connector-curvature="0"
       id="path4287-8-1-7"
       d="m -74.140764,644.09359 -30.694786,0.098"
       style="fill:none;stroke:#000000;stroke-width:1.01141572px;stroke-linecap:butt;stroke-linejoin:miter;stroke-opacity:1" />
    <rect
       transform="matrix(-0.00319719,-0.99999489,-0.99999489,0.00319719,0,0)"
       y="35.890244"
       x="-530.30261"
       height="42.496738"
       width="62.923027"
       id="rect4104-9-8-5"
       style="fill:#ff00ff;stroke:#800080;stroke-width:0.57095009;stroke-miterlimit:39.59999847;stroke-dasharray:none;stroke-dashoffset:0" />
    <path
       inkscape:connector-curvature="0"
       id="path4201-12-6-4"
       d="m -0.31276429,533.03979 -20.35329971,-10.02126 -13.9367,-0.67595"
       style="fill:none;stroke:#000000;stroke-width:0.73816079;stroke-linecap:butt;stroke-linejoin:miter;stroke-miterlimit:3.29999995;stroke-opacity:1;stroke-dasharray:none" />
    <path
       transform="matrix(-0.66423992,0.01339944,0.01052637,1.0401817,30.882906,386.10782)"
       inkscape:transform-center-y="-0.11952711"
       inkscape:transform-center-x="-9.6678233"
       d="M 51.428574,83.402795 7.2779365,58.893174 -36.8727,34.383558 6.4285728,8.4027944 49.729841,-17.577971 50.579206,32.912413 z"
       inkscape:randomized="0"
       inkscape:rounded="0"
       inkscape:flatsided="false"
       sodipodi:arg2="2.0775744"
       sodipodi:arg1="1.0303768"
       sodipodi:r2="29.154758"
       sodipodi:r1="58.309521"
       sodipodi:cy="33.402794"
       sodipodi:cx="21.428572"
       sodipodi:sides="3"
       id="path3138-5-9-98-2"
       style="fill:#dd55ff;stroke:#000000;stroke-width:0.44891074;stroke-miterlimit:39.59999847;stroke-dasharray:none;stroke-dashoffset:0"
       sodipodi:type="star" />
    <path
       inkscape:connector-curvature="0"
       id="path4221-3-0-2"
       d="m -2.2980643,471.14228 -17.1041997,10.02818 -15.8669,0.051"
       style="fill:none;stroke:#000000;stroke-width:0.77506888;stroke-linecap:butt;stroke-linejoin:miter;stroke-miterlimit:3.29999995;stroke-opacity:1;stroke-dasharray:none" />
    <path
       inkscape:connector-curvature="0"
       id="path4285-24-2-4"
       d="m -77.564664,523.20042 -26.707586,0.0855"
       style="fill:#ff5555;stroke:#000000;stroke-width:0.92270106px;stroke-linecap:butt;stroke-linejoin:miter;stroke-opacity:1" />
    <path
       inkscape:connector-curvature="0"
       id="path4287-9-5-4"
       d="m -77.803464,479.25244 -27.671986,0.0885"
       style="fill:#ff5555;stroke:#000000;stroke-width:0.96032083px;stroke-linecap:butt;stroke-linejoin:miter;stroke-opacity:1" />
    <rect
       transform="matrix(-0.00319719,-0.99999489,-0.99999489,0.00319719,0,0)"
       y="38.052231"
       x="-365.28778"
       height="42.496738"
       width="62.923027"
       id="rect4104-7-9-7-4"
       style="fill:#ff00ff;stroke:#800080;stroke-width:0.57095009;stroke-miterlimit:39.59999847;stroke-dasharray:none;stroke-dashoffset:0" />
    <path
       inkscape:connector-curvature="0"
       id="path4201-1-6-4-8"
       d="m -3.0019643,368.03268 -20.3530997,-10.02178 -13.9367,-0.67574"
       style="fill:none;stroke:#000000;stroke-width:0.73816079;stroke-linecap:butt;stroke-linejoin:miter;stroke-miterlimit:3.29999995;stroke-opacity:1;stroke-dasharray:none" />
    <path
       inkscape:connector-curvature="0"
       id="path4221-1-0-6-6"
       d="m -4.9871643,306.13507 -17.1043997,10.02818 -15.8666,0.051"
       style="fill:none;stroke:#000000;stroke-width:0.77506888;stroke-linecap:butt;stroke-linejoin:miter;stroke-miterlimit:3.29999995;stroke-opacity:1;stroke-dasharray:none" />
    <path
       inkscape:connector-curvature="0"
       id="path4285-2-1-1-5"
       d="m -80.253764,358.193 -26.707386,0.0852"
       style="fill:#ff5555;stroke:#000000;stroke-width:0.92270106px;stroke-linecap:butt;stroke-linejoin:miter;stroke-opacity:1" />
    <path
       inkscape:connector-curvature="0"
       id="path4287-8-5-2-1"
       d="m -80.492664,314.24514 -27.672086,0.0886"
       style="fill:#ff5555;stroke:#000000;stroke-width:0.96032083px;stroke-linecap:butt;stroke-linejoin:miter;stroke-opacity:1" />
    <path
       inkscape:connector-curvature="0"
       id="path4289-4-40-0"
       d="m 3.5827357,749.30089 -107.1401857,0.3425"
       style="fill:none;stroke:#000000;stroke-width:0.93685675px;stroke-linecap:butt;stroke-linejoin:miter;stroke-opacity:1" />
    <path
       inkscape:connector-curvature="0"
       id="path4289-4-4-2-4"
       d="M 0.15713571,586.42749 -103.76995,586.75979"
       style="fill:none;stroke:#000000;stroke-width:0.92270106px;stroke-linecap:butt;stroke-linejoin:miter;stroke-opacity:1" />
    <path
       inkscape:connector-curvature="0"
       id="path4287-2-0-7-67-9"
       d="m 89.7027,751.25869 -27.671904,0.088"
       style="fill:none;stroke:#000000;stroke-width:0.96032083px;stroke-linecap:butt;stroke-linejoin:miter;stroke-opacity:1" />
    <path
       inkscape:connector-curvature="0"
       id="path4287-2-0-7-1-1-4-4"
       d="m 83.2605,421.157 -27.671804,0.0885"
       style="fill:none;stroke:#000000;stroke-width:0.96032083px;stroke-linecap:butt;stroke-linejoin:miter;stroke-opacity:1" />
    <path
       inkscape:connector-curvature="0"
       id="path4289-4-4-5-0-4-5"
       d="M 0.66703571,425.97378 -106.67395,426.31711"
       style="fill:#dd55ff;stroke:#000000;stroke-width:0.93773168px;stroke-linecap:butt;stroke-linejoin:miter;stroke-opacity:1" />
    <g
       transform="translate(-646.42172,-630.09299)"
       id="g5416">
      <g
         style="font-style:normal;font-variant:normal;font-weight:normal;font-stretch:normal;letter-spacing:normal;word-spacing:normal;text-anchor:start;fill:none;stroke:#000000;stroke-linecap:butt;stroke-linejoin:miter;stroke-miterlimit:10.43299961;stroke-opacity:1;stroke-dasharray:none;stroke-dashoffset:0"
         id="g5418"
         transform="matrix(1.3539135,0,0,-1.3539135,-236.93486,1017.9791)"
         xml:space="preserve"
         stroke-miterlimit="10.433"
         font-style="normal"
         font-variant="normal"
         font-weight="normal"
         font-stretch="normal"
         font-size-adjust="none"
         letter-spacing="normal"
         word-spacing="normal"><path
           style="fill:#000000;stroke-width:0"
           inkscape:connector-curvature="0"
           d="m 471.86,441.67 0.01,0.02 0.02,0.03 0.01,0.02 0.01,0.03 0.02,0.04 0.02,0.04 0.01,0.04 0.02,0.04 0.01,0.04 0.02,0.04 0.01,0.03 0.01,0.03 0.01,0.03 0.01,0.03 0.01,0.03 0.01,0.02 0.01,0.03 0,0.02 0.01,0.03 0,0.02 0.01,0.02 0,0.02 0,0.02 0.01,0.02 0,0.04 0,0.04 0,0.05 0,0.04 0,0.02 0,0.02 c 0,0.55 -0.45,0.99 -1,0.99 -0.45,0 -0.79,-0.25 -1.14,-1.14 l -8.72,-22.86 c -0.11,-0.31 -0.25,-0.61 -0.25,-0.91 0,-0.14 0,-0.25 0.25,-0.84 l 8.72,-22.88 c 0.19,-0.54 0.44,-1.18 1.14,-1.18 0.55,0 1,0.45 1,1 0,0.14 0,0.25 -0.25,0.79 l -8.82,23.11 z"
           id="path5420" /><path
           style="fill:#000000;stroke-width:0"
           inkscape:connector-curvature="0"
           d="m 498.85,439.48 0.01,0.02 0,0.02 0.01,0.04 0.01,0.04 0.01,0.05 0.01,0.04 0.02,0.05 0.01,0.05 0.01,0.05 0.01,0.05 0.01,0.05 0.01,0.05 0.01,0.05 0,0.05 0.01,0.04 0,0.05 0,0.03 0,0.02 c 0,0.5 -0.34,0.55 -0.59,0.55 -0.5,0 -0.55,-0.11 -0.75,-1 l -8.27,-32.94 c -3.78,0.45 -5.67,2.3 -5.67,5.59 0,0.99 0,2.28 2.69,9.27 0.2,0.59 0.55,1.44 0.55,2.44 0,2.23 -1.6,4.07 -4.1,4.07 -4.73,0 -6.58,-7.21 -6.58,-7.67 0,-0.5 0.5,-0.5 0.61,-0.5 0.5,0 0.55,0.11 0.8,0.91 1.34,4.73 3.33,6.17 5.03,6.17 0.39,0 1.25,0 1.25,-1.59 0,-1.3 -0.5,-2.53 -1.16,-4.28 -2.39,-6.29 -2.39,-7.58 -2.39,-8.43 0,-4.73 3.89,-6.78 8.68,-7.07 -0.41,-1.79 -0.41,-1.89 -1.1,-4.54 -0.15,-0.54 -1.15,-4.57 -1.15,-4.73 0,-0.05 0,-0.5 0.61,-0.5 0.09,0 0.34,0 0.43,0.2 0.16,0.1 0.46,1.35 0.61,2.05 l 1.89,7.42 c 1.85,0 6.22,0 10.91,5.33 2.05,2.3 3.09,4.48 3.64,5.98 0.45,1.24 1.55,5.58 1.55,7.77 0,2.8 -1.35,3.48 -2.21,3.48 -1.23,0 -2.48,-1.29 -2.48,-2.39 0,-0.64 0.3,-0.93 0.75,-1.34 0.55,-0.55 1.8,-1.84 1.8,-4.23 0,-3.19 -2.6,-7.27 -4.35,-9.07 -4.37,-4.43 -7.56,-4.43 -9.36,-4.43 z"
           id="path5422" /><path
           style="fill:#000000;stroke-width:0"
           inkscape:connector-curvature="0"
           d="m 525.52,394.25 0,0.02 0,0.03 0,0.01 -0.01,0.02 0,0.01 0,0.02 -0.01,0.01 -0.01,0.02 0,0.02 -0.01,0.02 -0.02,0.02 -0.01,0.03 -0.02,0.02 -0.02,0.03 -0.02,0.03 -0.02,0.03 -0.03,0.03 -0.03,0.04 -0.01,0.02 -0.02,0.02 -0.02,0.02 -0.01,0.02 -0.02,0.02 -0.02,0.03 -0.02,0.02 -0.03,0.02 -0.02,0.03 -0.02,0.02 -0.03,0.03 -0.02,0.03 -0.03,0.03 -0.03,0.03 -0.03,0.03 -0.03,0.03 -0.03,0.03 -0.03,0.03 -0.03,0.04 -0.04,0.03 -0.03,0.04 -0.04,0.03 -0.04,0.04 -0.03,0.04 c -6.22,6.28 -7.82,15.69 -7.82,23.31 0,8.67 1.89,17.35 8.02,23.56 0.64,0.61 0.64,0.71 0.64,0.86 0,0.35 -0.19,0.49 -0.49,0.49 -0.5,0 -4.98,-3.38 -7.92,-9.7 -2.54,-5.49 -3.14,-11.02 -3.14,-15.21 0,-3.89 0.55,-9.9 3.28,-15.54 2.99,-6.13 7.28,-9.36 7.78,-9.36 0.3,0 0.49,0.14 0.49,0.5 z"
           id="path5424" /><path
           style="fill:#000000;stroke-width:0"
           inkscape:connector-curvature="0"
           d="m 538.62,426.12 h 4.68 c 0.99,0 1.49,0 1.49,1 0,0.55 -0.5,0.55 -1.39,0.55 h -4.39 c 1.79,7.08 2.04,8.08 2.04,8.37 0,0.85 -0.59,1.35 -1.43,1.35 -0.16,0 -1.55,-0.05 -2,-1.8 l -1.94,-7.92 h -4.69 c -1,0 -1.5,0 -1.5,-0.94 0,-0.61 0.41,-0.61 1.41,-0.61 h 4.37 c -3.57,-14.14 -3.78,-14.98 -3.78,-15.89 0,-2.69 1.89,-4.58 4.58,-4.58 5.08,0 7.92,7.27 7.92,7.67 0,0.5 -0.39,0.5 -0.59,0.5 -0.45,0 -0.5,-0.15 -0.75,-0.7 -2.14,-5.17 -4.78,-6.37 -6.47,-6.37 -1.05,0 -1.55,0.65 -1.55,2.29 0,1.19 0.1,1.55 0.3,2.39 z"
           id="path5426" /><path
           style="fill:#000000;stroke-width:0"
           inkscape:connector-curvature="0"
           d="m 560.74,418.65 0,0.37 0,0.39 -0.01,0.39 -0.02,0.41 -0.04,0.84 -0.06,0.88 -0.08,0.92 -0.11,0.95 -0.13,0.97 -0.16,1.01 -0.2,1.02 -0.23,1.03 -0.27,1.05 -0.3,1.06 -0.35,1.07 -0.39,1.07 -0.22,0.53 -0.22,0.53 -0.24,0.53 -0.25,0.53 c -2.98,6.12 -7.26,9.36 -7.76,9.36 -0.3,0 -0.5,-0.19 -0.5,-0.49 0,-0.15 0,-0.25 0.93,-1.15 4.89,-4.92 7.74,-12.85 7.74,-23.27 0,-8.51 -1.85,-17.28 -8.03,-23.56 -0.64,-0.59 -0.64,-0.7 -0.64,-0.84 0,-0.3 0.2,-0.5 0.5,-0.5 0.5,0 4.96,3.39 7.92,9.71 2.53,5.47 3.12,11 3.12,15.19 z"
           id="path5428" /><path
           style="fill:#000000;stroke-width:0"
           inkscape:connector-curvature="0"
           d="m 573.59,441.78 0,0.16 0,0.17 -0.01,0.16 0,0.08 -0.01,0.08 0,0.08 -0.01,0.08 -0.01,0.07 -0.01,0.07 -0.02,0.07 -0.01,0.07 -0.02,0.07 -0.02,0.06 -0.03,0.06 -0.03,0.06 -0.03,0.06 -0.03,0.05 -0.04,0.05 -0.04,0.05 -0.05,0.04 -0.05,0.04 -0.03,0.01 -0.03,0.02 -0.03,0.02 -0.03,0.01 -0.03,0.01 -0.03,0.02 -0.03,0.01 -0.04,0.01 -0.04,0.01 -0.03,0.01 -0.04,0 -0.04,0.01 -0.05,0 -0.04,0.01 -0.04,0 -0.05,0 c -1,0 -1,-0.89 -1,-1.78 v -46.24 c 0,-0.9 0,-1.79 1,-1.79 1,0 1,0.89 1,1.79 z"
           id="path5430" /><path
           style="fill:#000000;stroke-width:0"
           inkscape:connector-curvature="0"
           d="m 605.28,424.78 0.06,0 0.07,0 0.08,0 0.08,0 0.08,0 0.09,0.01 0.09,0 0.1,0.01 0.1,0.01 0.1,0.02 0.1,0.02 0.1,0.02 0.1,0.02 0.1,0.03 0.11,0.03 0.1,0.04 0.09,0.04 0.1,0.05 0.09,0.05 0.09,0.06 0.09,0.07 0.08,0.07 0.04,0.04 0.03,0.04 0.04,0.04 0.03,0.05 0.04,0.04 0.03,0.05 0.03,0.05 0.02,0.05 0.03,0.05 0.02,0.06 0.03,0.06 0.02,0.06 0.01,0.06 0.02,0.06 0.01,0.07 0.01,0.07 0.01,0.07 0.01,0.08 0,0.07 0.01,0.08 c 0,1.19 -1.05,1.19 -1.94,1.19 h -11.36 c -7.53,0 -13.07,-8.22 -13.07,-14.14 0,-4.39 2.94,-7.88 7.47,-7.88 l 0.07,1.1 c -2.46,0 -4.44,1.79 -4.44,5.37 0,1.5 0.59,5.59 2.34,8.53 2.1,3.44 5.08,4.13 6.77,4.13 4.19,0 4.59,-3.28 4.59,-4.83 0,-2.34 -1,-6.42 -2.68,-8.97 -1.96,-2.94 -4.65,-4.23 -6.58,-4.23 h 0 l -0.07,-1.1 c 5.9,0 12.52,6.03 12.52,13.71 0,0.84 0,3.23 -1.55,5.42 z"
           id="path5432" /><path
           style="fill:#000000;stroke-width:0"
           inkscape:connector-curvature="0"
           d="m 615.58,427.26 0.17,0.17 0.16,0.16 0.17,0.17 0.17,0.17 0.17,0.17 0.1,0.09 0.1,0.09 0.1,0.1 0.1,0.1 0.12,0.1 0.11,0.11 0.13,0.11 0.12,0.11 0.14,0.12 0.14,0.13 0.16,0.13 0.16,0.13 0.17,0.15 0.17,0.15 0.19,0.15 0.2,0.17 0.21,0.17 0.22,0.18 0.23,0.19 0.25,0.2 0.25,0.2 0.27,0.22 c 0.74,0.59 3.35,2.69 4.36,3.66 2.13,2.09 3.46,3.87 3.46,4.29 0,0.41 -0.46,0.41 -0.6,0.41 -0.31,0 -0.42,-0.06 -0.59,-0.35 -1.08,-1.59 -1.81,-2.12 -2.64,-2.12 -0.43,0 -0.96,0.03 -2,1.05 -1.17,1.18 -1.94,1.42 -2.75,1.42 -2.78,0 -4.68,-3.03 -4.68,-4.06 0,-0.33 0.36,-0.43 0.6,-0.43 0.42,0 0.5,0.1 0.62,0.49 0.54,1.22 2.49,1.3 3.05,1.3 0.8,0 1.7,-0.22 2.19,-0.33 1.92,-0.41 2.15,-0.41 3.03,-0.41 -0.91,-0.95 -1.53,-1.58 -4.84,-4.22 -2.72,-2.15 -3.66,-3.03 -4.32,-3.73 -2.09,-2.05 -3.11,-3.58 -3.11,-3.91 0,-0.4 0.46,-0.4 0.6,-0.4 0.34,0 0.42,0.06 0.59,0.34 0.94,1.33 2.02,2.12 3.2,2.12 0.43,0 0.94,-0.03 1.88,-0.9 1.09,-1.05 1.78,-1.56 2.91,-1.56 3.71,0 6.06,4.21 6.06,5.39 0,0.42 -0.39,0.45 -0.6,0.45 -0.42,0 -0.5,-0.17 -0.62,-0.55 -0.67,-1.75 -2.72,-2.58 -4.44,-2.58 -0.8,0 -1.67,0.18 -2.53,0.38 -1.61,0.34 -1.89,0.34 -2.51,0.34 -0.08,0 -0.6,0 -0.8,-0.03 z"
           id="path5434" /><path
           style="fill:#000000;stroke-width:0"
           inkscape:connector-curvature="0"
           d="m 640.92,441.78 0,0.16 0,0.17 0,0.16 -0.01,0.08 0,0.08 -0.01,0.08 -0.01,0.08 -0.01,0.07 -0.01,0.07 -0.02,0.07 -0.01,0.07 -0.02,0.07 -0.02,0.06 -0.03,0.06 -0.03,0.06 -0.03,0.06 -0.03,0.05 -0.04,0.05 -0.04,0.05 -0.05,0.04 -0.05,0.04 -0.03,0.01 -0.02,0.02 -0.03,0.02 -0.03,0.01 -0.04,0.01 -0.03,0.02 -0.03,0.01 -0.04,0.01 -0.03,0.01 -0.04,0.01 -0.04,0 -0.04,0.01 -0.04,0 -0.05,0.01 -0.04,0 -0.05,0 c -1,0 -1,-0.89 -1,-1.78 v -46.24 c 0,-0.9 0,-1.79 1,-1.79 1,0 1,0.89 1,1.79 z"
           id="path5436" /><path
           style="fill:#000000;stroke-width:0"
           inkscape:connector-curvature="0"
           d="m 670.81,439.48 0.01,0.02 0,0.02 0.01,0.04 0.01,0.04 0.01,0.05 0.02,0.04 0.01,0.05 0.01,0.05 0.01,0.05 0.01,0.05 0.01,0.05 0.01,0.05 0.01,0.05 0,0.05 0.01,0.04 0,0.05 0,0.03 0,0.02 c 0,0.5 -0.34,0.55 -0.59,0.55 -0.5,0 -0.55,-0.11 -0.75,-1 l -8.27,-32.94 c -3.78,0.45 -5.67,2.3 -5.67,5.59 0,0.99 0,2.28 2.69,9.27 0.2,0.59 0.55,1.44 0.55,2.44 0,2.23 -1.6,4.07 -4.1,4.07 -4.73,0 -6.58,-7.21 -6.58,-7.67 0,-0.5 0.5,-0.5 0.61,-0.5 0.5,0 0.55,0.11 0.8,0.91 1.34,4.73 3.33,6.17 5.03,6.17 0.39,0 1.25,0 1.25,-1.59 0,-1.3 -0.5,-2.53 -1.15,-4.28 -2.39,-6.29 -2.39,-7.58 -2.39,-8.43 0,-4.73 3.89,-6.78 8.67,-7.07 -0.41,-1.79 -0.41,-1.89 -1.1,-4.54 -0.15,-0.54 -1.15,-4.57 -1.15,-4.73 0,-0.05 0,-0.5 0.61,-0.5 0.09,0 0.34,0 0.43,0.2 0.16,0.1 0.46,1.35 0.61,2.05 l 1.89,7.42 c 1.85,0 6.22,0 10.91,5.33 2.05,2.3 3.09,4.48 3.64,5.98 0.45,1.24 1.55,5.58 1.55,7.77 0,2.8 -1.35,3.48 -2.21,3.48 -1.23,0 -2.48,-1.29 -2.48,-2.39 0,-0.64 0.3,-0.93 0.75,-1.34 0.55,-0.55 1.8,-1.84 1.8,-4.23 0,-3.19 -2.6,-7.27 -4.35,-9.07 -4.37,-4.43 -7.56,-4.43 -9.36,-4.43 z"
           id="path5438" /><path
           style="fill:#000000;stroke-width:0"
           inkscape:connector-curvature="0"
           d="m 697.48,394.25 0,0.02 0,0.03 0,0.01 -0.01,0.02 0,0.01 0,0.02 -0.01,0.01 -0.01,0.02 0,0.02 -0.01,0.02 -0.02,0.02 -0.01,0.03 -0.02,0.02 -0.02,0.03 -0.02,0.03 -0.02,0.03 -0.03,0.03 -0.03,0.04 -0.01,0.02 -0.02,0.02 -0.02,0.02 -0.01,0.02 -0.02,0.02 -0.02,0.03 -0.02,0.02 -0.03,0.02 -0.02,0.03 -0.02,0.02 -0.03,0.03 -0.02,0.03 -0.03,0.03 -0.03,0.03 -0.03,0.03 -0.02,0.03 -0.04,0.03 -0.03,0.03 -0.03,0.04 -0.03,0.03 -0.04,0.04 -0.04,0.03 -0.03,0.04 -0.04,0.04 c -6.22,6.28 -7.82,15.69 -7.82,23.31 0,8.67 1.9,17.35 8.02,23.56 0.64,0.61 0.64,0.71 0.64,0.86 0,0.35 -0.19,0.49 -0.48,0.49 -0.5,0 -4.99,-3.38 -7.93,-9.7 -2.54,-5.49 -3.14,-11.02 -3.14,-15.21 0,-3.89 0.55,-9.9 3.29,-15.54 2.98,-6.13 7.28,-9.36 7.78,-9.36 0.29,0 0.48,0.14 0.48,0.5 z"
           id="path5440" /><path
           style="fill:#000000;stroke-width:0"
           inkscape:connector-curvature="0"
           d="m 710.58,426.12 h 4.69 c 0.98,0 1.48,0 1.48,1 0,0.55 -0.5,0.55 -1.39,0.55 h -4.39 c 1.8,7.08 2.05,8.08 2.05,8.37 0,0.85 -0.6,1.35 -1.44,1.35 -0.16,0 -1.55,-0.05 -2,-1.8 l -1.94,-7.92 h -4.69 c -1,0 -1.5,0 -1.5,-0.94 0,-0.61 0.41,-0.61 1.41,-0.61 h 4.37 c -3.57,-14.14 -3.78,-14.98 -3.78,-15.89 0,-2.69 1.89,-4.58 4.58,-4.58 5.08,0 7.92,7.27 7.92,7.67 0,0.5 -0.39,0.5 -0.59,0.5 -0.45,0 -0.5,-0.15 -0.75,-0.7 -2.14,-5.17 -4.78,-6.37 -6.47,-6.37 -1.05,0 -1.55,0.65 -1.55,2.29 0,1.19 0.1,1.55 0.3,2.39 z"
           id="path5442" /><path
           style="fill:#000000;stroke-width:0"
           inkscape:connector-curvature="0"
           d="m 732.7,418.65 0,0.37 0,0.39 -0.01,0.39 -0.02,0.41 -0.04,0.84 -0.06,0.88 -0.08,0.92 -0.1,0.95 -0.14,0.97 -0.16,1.01 -0.2,1.02 -0.23,1.03 -0.27,1.05 -0.3,1.06 -0.35,1.07 -0.39,1.07 -0.22,0.53 -0.22,0.53 -0.24,0.53 -0.25,0.53 c -2.98,6.12 -7.26,9.36 -7.76,9.36 -0.3,0 -0.5,-0.19 -0.5,-0.49 0,-0.15 0,-0.25 0.93,-1.15 4.89,-4.92 7.74,-12.85 7.74,-23.27 0,-8.51 -1.85,-17.28 -8.03,-23.56 -0.64,-0.59 -0.64,-0.7 -0.64,-0.84 0,-0.3 0.2,-0.5 0.5,-0.5 0.5,0 4.96,3.39 7.92,9.71 2.53,5.47 3.12,11 3.12,15.19 z"
           id="path5444" /><path
           style="fill:#000000;stroke-width:0"
           inkscape:connector-curvature="0"
           d="m 751.22,417.81 0.01,0.03 0.02,0.02 0.01,0.03 0.01,0.02 0.01,0.03 0.01,0.02 0.01,0.03 0.01,0.02 0,0.02 0.01,0.02 0.01,0.02 0.01,0.03 0.01,0.03 0.02,0.04 0.01,0.04 0.01,0.03 0.01,0.03 0.01,0.03 0.01,0.03 0.01,0.02 0.01,0.03 0,0.02 0.01,0.02 0,0.02 0.01,0.02 0,0.02 0,0.02 0.01,0.01 0,0.02 0,0.01 0,0.02 0,0.01 0,0.03 0,0.03 0,0.02 c 0,0.16 0,0.25 -0.25,0.85 l -8.72,22.92 c -0.29,0.84 -0.59,1.14 -1.14,1.14 -0.54,0 -1,-0.44 -1,-0.99 0,-0.15 0,-0.25 0.25,-0.79 l 8.83,-23.13 -8.83,-23.01 c -0.25,-0.55 -0.25,-0.64 -0.25,-0.89 0,-0.55 0.46,-1 1,-1 0.66,0 0.85,0.5 1.05,1 z"
           id="path5446" /><path
           style="fill:#000000;stroke-width:0"
           inkscape:connector-curvature="0"
           d="m 805.22,422.5 0.14,0 0.14,0 0.15,0 0.07,0.01 0.07,0 0.07,0.01 0.08,0.01 0.07,0.01 0.07,0.01 0.06,0.01 0.07,0.02 0.06,0.02 0.07,0.02 0.06,0.02 0.06,0.03 0.05,0.03 0.06,0.04 0.05,0.03 0.04,0.05 0.05,0.04 0.04,0.05 0.01,0.03 0.02,0.03 0.02,0.02 0.01,0.03 0.02,0.03 0.01,0.04 0.01,0.03 0.01,0.04 0.01,0.03 0.01,0.04 0.01,0.04 0.01,0.04 0,0.04 0,0.04 0.01,0.04 0,0.05 c 0,1 -0.96,1 -1.64,1 h -29.85 c -0.7,0 -1.64,0 -1.64,-1 0,-0.98 0.94,-0.98 1.69,-0.98 z"
           id="path5448" /><path
           style="fill:#000000;stroke-width:0"
           inkscape:connector-curvature="0"
           d="m 805.27,412.82 0.06,0 0.07,0 0.13,0.01 0.14,0 0.07,0 0.07,0.01 0.07,0.01 0.07,0 0.07,0.01 0.07,0.02 0.06,0.01 0.07,0.02 0.06,0.02 0.06,0.02 0.06,0.02 0.06,0.03 0.06,0.03 0.05,0.04 0.05,0.04 0.04,0.04 0.05,0.05 0.02,0.02 0.02,0.03 0.01,0.02 0.02,0.03 0.02,0.03 0.01,0.03 0.02,0.03 0.01,0.03 0.01,0.04 0.01,0.03 0.01,0.04 0.01,0.04 0.01,0.04 0.01,0.04 0,0.04 0,0.04 0.01,0.05 0,0.04 c 0,1 -0.96,1 -1.69,1 h -29.75 c -0.75,0 -1.69,0 -1.69,-1 0,-1 0.94,-1 1.64,-1 z"
           id="path5450" /><path
           style="fill:#000000;stroke-width:0"
           inkscape:connector-curvature="0"
           d="m 839.89,441.67 0.01,0.02 0.01,0.03 0.01,0.02 0.01,0.03 0.02,0.04 0.02,0.04 0.02,0.04 0.01,0.04 0.02,0.04 0.01,0.04 0.01,0.03 0.02,0.03 0.01,0.03 0.01,0.03 0,0.03 0.01,0.02 0.01,0.03 0.01,0.02 0,0.03 0.01,0.02 0,0.02 0,0.02 0.01,0.02 0,0.02 0,0.04 0.01,0.04 0,0.05 0,0.04 0,0.02 0,0.02 c 0,0.55 -0.46,0.99 -1,0.99 -0.46,0 -0.8,-0.25 -1.14,-1.14 l -8.72,-22.86 c -0.11,-0.31 -0.25,-0.61 -0.25,-0.91 0,-0.14 0,-0.25 0.25,-0.84 L 838,394.93 c 0.18,-0.54 0.43,-1.18 1.14,-1.18 0.54,0 1,0.45 1,1 0,0.14 0,0.25 -0.25,0.79 l -8.83,23.11 z"
           id="path5452" /><path
           style="fill:#000000;stroke-width:0"
           inkscape:connector-curvature="0"
           d="m 866.88,439.48 0,0.02 0,0.02 0.01,0.04 0.02,0.04 0.01,0.05 0.01,0.04 0.01,0.05 0.01,0.05 0.01,0.05 0.01,0.05 0.01,0.05 0.01,0.05 0.01,0.05 0.01,0.05 0,0.04 0,0.05 0.01,0.03 0,0.02 c 0,0.5 -0.35,0.55 -0.6,0.55 -0.5,0 -0.54,-0.11 -0.75,-1 l -8.26,-32.94 c -3.79,0.45 -5.68,2.3 -5.68,5.59 0,0.99 0,2.28 2.69,9.27 0.2,0.59 0.55,1.44 0.55,2.44 0,2.23 -1.59,4.07 -4.09,4.07 -4.74,0 -6.58,-7.21 -6.58,-7.67 0,-0.5 0.5,-0.5 0.61,-0.5 0.5,0 0.54,0.11 0.79,0.91 1.35,4.73 3.33,6.17 5.03,6.17 0.39,0 1.25,0 1.25,-1.59 0,-1.3 -0.5,-2.53 -1.15,-4.28 -2.39,-6.29 -2.39,-7.58 -2.39,-8.43 0,-4.73 3.89,-6.78 8.67,-7.07 -0.41,-1.79 -0.41,-1.89 -1.09,-4.54 -0.16,-0.54 -1.16,-4.57 -1.16,-4.73 0,-0.05 0,-0.5 0.61,-0.5 0.09,0 0.34,0 0.44,0.2 0.15,0.1 0.45,1.35 0.61,2.05 l 1.89,7.42 c 1.84,0 6.21,0 10.9,5.33 2.05,2.3 3.1,4.48 3.64,5.98 0.46,1.24 1.55,5.58 1.55,7.77 0,2.8 -1.34,3.48 -2.2,3.48 -1.24,0 -2.49,-1.29 -2.49,-2.39 0,-0.64 0.3,-0.93 0.75,-1.34 0.55,-0.55 1.8,-1.84 1.8,-4.23 0,-3.19 -2.59,-7.27 -4.34,-9.07 -4.38,-4.43 -7.57,-4.43 -9.36,-4.43 z"
           id="path5454" /><path
           style="fill:#000000;stroke-width:0"
           inkscape:connector-curvature="0"
           d="m 893.54,394.25 0,0.02 0,0.03 0,0.01 0,0.02 -0.01,0.01 0,0.02 -0.01,0.01 0,0.02 -0.01,0.02 -0.01,0.02 -0.01,0.02 -0.02,0.03 -0.01,0.02 -0.02,0.03 -0.02,0.03 -0.03,0.03 -0.02,0.03 -0.03,0.04 -0.02,0.02 -0.02,0.02 -0.01,0.02 -0.02,0.02 -0.02,0.02 -0.02,0.03 -0.02,0.02 -0.02,0.02 -0.03,0.03 -0.02,0.02 -0.02,0.03 -0.03,0.03 -0.03,0.03 -0.02,0.03 -0.03,0.03 -0.03,0.03 -0.03,0.03 -0.04,0.03 -0.03,0.04 -0.03,0.03 -0.04,0.04 -0.03,0.03 -0.04,0.04 -0.04,0.04 c -6.22,6.28 -7.81,15.69 -7.81,23.31 0,8.67 1.89,17.35 8.01,23.56 0.64,0.61 0.64,0.71 0.64,0.86 0,0.35 -0.19,0.49 -0.48,0.49 -0.5,0 -4.99,-3.38 -7.92,-9.7 -2.55,-5.49 -3.14,-11.02 -3.14,-15.21 0,-3.89 0.54,-9.9 3.28,-15.54 2.98,-6.13 7.28,-9.36 7.78,-9.36 0.29,0 0.48,0.14 0.48,0.5 z"
           id="path5456" /><path
           style="fill:#000000;stroke-width:0"
           inkscape:connector-curvature="0"
           d="m 919.3,422.14 -0.01,0.74 -0.01,0.75 -0.02,0.75 -0.03,0.74 -0.04,0.75 -0.06,0.74 -0.08,0.74 -0.1,0.73 -0.11,0.73 -0.14,0.73 -0.16,0.72 -0.19,0.72 -0.22,0.72 -0.24,0.7 -0.28,0.7 -0.15,0.35 -0.16,0.34 c -2.28,4.8 -6.38,5.6 -8.47,5.6 -2.99,0 -6.63,-1.3 -8.67,-5.94 -1.6,-3.44 -1.85,-7.33 -1.85,-11.31 0,-3.74 0.21,-8.22 2.25,-12 2.14,-4.03 5.78,-5.03 8.22,-5.03 v 1.09 c -1.94,0 -4.89,1.25 -5.78,6.03 -0.55,2.98 -0.55,7.56 -0.55,10.52 0,3.18 0,6.46 0.41,9.15 0.94,5.94 4.67,6.38 5.92,6.38 1.64,0 4.94,-0.89 5.88,-5.83 0.5,-2.78 0.5,-6.58 0.5,-9.7 0,-3.75 0,-7.13 -0.55,-10.32 -0.75,-4.73 -3.59,-6.23 -5.83,-6.23 h 0 v -1.09 c 2.69,0 6.47,1.04 8.67,5.78 1.6,3.43 1.85,7.31 1.85,11.25 z"
           id="path5458" /><path
           style="fill:#000000;stroke-width:0"
           inkscape:connector-curvature="0"
           d="m 935.72,418.65 0,0.37 0,0.39 -0.01,0.39 -0.02,0.41 -0.04,0.84 -0.06,0.88 -0.08,0.92 -0.1,0.95 -0.14,0.97 -0.16,1.01 -0.2,1.02 -0.23,1.03 -0.27,1.05 -0.3,1.06 -0.35,1.07 -0.39,1.07 -0.22,0.53 -0.22,0.53 -0.24,0.53 -0.25,0.53 c -2.98,6.12 -7.26,9.36 -7.76,9.36 -0.3,0 -0.5,-0.19 -0.5,-0.49 0,-0.15 0,-0.25 0.93,-1.15 4.89,-4.92 7.74,-12.85 7.74,-23.27 0,-8.51 -1.85,-17.28 -8.03,-23.56 -0.64,-0.59 -0.64,-0.7 -0.64,-0.84 0,-0.3 0.2,-0.5 0.5,-0.5 0.5,0 4.97,3.39 7.92,9.71 2.53,5.47 3.12,11 3.12,15.19 z"
           id="path5460" /><path
           style="fill:#000000;stroke-width:0"
           inkscape:connector-curvature="0"
           d="m 948.57,441.78 0,0.16 0,0.17 -0.01,0.16 0,0.08 -0.01,0.08 0,0.08 -0.01,0.08 -0.01,0.07 -0.01,0.07 -0.02,0.07 -0.01,0.07 -0.02,0.07 -0.02,0.06 -0.03,0.06 -0.03,0.06 -0.03,0.06 -0.03,0.05 -0.04,0.05 -0.04,0.05 -0.05,0.04 -0.05,0.04 -0.03,0.01 -0.03,0.02 -0.03,0.02 -0.03,0.01 -0.03,0.01 -0.03,0.02 -0.03,0.01 -0.04,0.01 -0.04,0.01 -0.03,0.01 -0.04,0 -0.04,0.01 -0.05,0 -0.04,0.01 -0.04,0 -0.05,0 c -1,0 -1,-0.89 -1,-1.78 v -46.24 c 0,-0.9 0,-1.79 1,-1.79 1,0 1,0.89 1,1.79 z"
           id="path5462" /><path
           style="fill:#000000;stroke-width:0"
           inkscape:connector-curvature="0"
           d="m 986.09,435 0.09,0.37 0.06,0.19 0.06,0.18 0.06,0.17 0.07,0.17 0.07,0.17 0.08,0.16 0.08,0.16 0.09,0.16 0.1,0.15 0.11,0.14 0.11,0.14 0.12,0.14 0.14,0.12 0.14,0.13 0.15,0.12 0.16,0.11 0.18,0.11 0.18,0.1 0.2,0.09 0.21,0.09 0.22,0.08 0.24,0.08 0.25,0.07 0.27,0.06 0.28,0.06 0.3,0.04 0.31,0.05 0.33,0.03 0.35,0.03 0.18,0.01 0.18,0 c 0.25,0 0.84,0.05 0.84,1 0,0.05 0,0.55 -0.64,0.55 -1.64,0 -3.39,-0.16 -5.07,-0.16 -1.71,0 -3.55,0.16 -5.19,0.16 -0.3,0 -0.89,0 -0.89,-1 0,-0.55 0.5,-0.55 0.89,-0.55 2.84,-0.04 3.39,-1.09 3.39,-2.18 0,-0.16 -0.11,-0.91 -0.16,-1.05 l -4.48,-17.8 c -1.69,-6.67 -7.42,-11 -12.41,-11 -3.37,0 -6.08,2.19 -6.08,6.47 0,0.11 0,1.7 0.55,3.89 l 4.84,19.38 c 0.44,1.79 0.55,2.29 4.19,2.29 1.28,0 1.69,0 1.69,1 0,0.55 -0.55,0.55 -0.7,0.55 -1.39,0 -4.99,-0.16 -6.38,-0.16 -1.44,0 -4.98,0.16 -6.42,0.16 -0.41,0 -0.95,0 -0.95,-1 0,-0.55 0.45,-0.55 1.4,-0.55 0.1,0 1.05,0 1.89,-0.09 0.89,-0.11 1.35,-0.16 1.35,-0.8 0,-0.31 -0.55,-2.39 -0.85,-3.54 l -1.11,-4.38 c -0.43,-1.95 -2.82,-11.36 -3.03,-12.31 -0.34,-1.39 -0.34,-2.14 -0.34,-2.89 0,-6.08 4.53,-9.56 9.76,-9.56 6.27,0 12.46,5.62 14.1,12.2 z"
           id="path5464" /><path
           style="fill:#000000;stroke-width:0"
           inkscape:connector-curvature="0"
           d="m 1032.5,430.21 0,0.59 0,0.58 -0.1,0.57 0,0.56 -0.1,0.55 -0.1,0.53 -0.1,0.52 -0.1,0.51 -0.2,0.5 -0.1,0.48 -0.2,0.46 -0.2,0.45 -0.2,0.43 -0.2,0.42 -0.3,0.4 -0.2,0.38 -0.3,0.37 -0.3,0.34 -0.3,0.32 -0.4,0.31 -0.3,0.28 -0.4,0.26 -0.4,0.24 -0.4,0.22 -0.4,0.19 -0.5,0.17 -0.4,0.15 -0.5,0.12 -0.5,0.09 -0.6,0.07 -0.5,0.04 -0.6,0.01 c -5.1,0 -9.5,-4.18 -9.9,-4.48 -4,-3.94 -5.5,-8.42 -5.5,-8.52 0,-0.29 0.3,-0.36 0.6,-0.36 0.9,0 1.7,0.5 2.4,1.05 0.9,0.66 1,0.8 1.5,1.95 0.5,0.99 1.6,3.44 3.5,5.54 1.2,1.34 2.2,2.09 4.2,2.09 4.8,0 7.9,-4 7.9,-10.52 0,-10.17 -7.3,-20.23 -16.5,-20.23 -7,0 -10.9,5.64 -10.9,12.75 0,6.78 3.5,14.25 10.7,18.55 0.5,0.29 2,1.18 2,1.84 0,0.34 -0.4,0.34 -0.5,0.34 -1.7,0 -16.45,-7.92 -16.45,-22.87 0,-6.97 3.65,-13.34 11.85,-13.34 9.8,0 24,9.76 24,25.1 z"
           id="path5466" /><path
           style="fill:#000000;stroke-width:0"
           inkscape:connector-curvature="0"
           d="m 1066.5,435 0.1,0.37 0,0.19 0.1,0.18 0.1,0.17 0,0.17 0.1,0.17 0.1,0.16 0.1,0.16 0,0.16 0.1,0.15 0.1,0.14 0.2,0.14 0.1,0.14 0.1,0.12 0.2,0.13 0.1,0.12 0.2,0.11 0.2,0.11 0.1,0.1 0.2,0.09 0.2,0.09 0.3,0.08 0.2,0.08 0.3,0.07 0.2,0.06 0.3,0.06 0.3,0.04 0.3,0.05 0.3,0.03 0.4,0.03 0.2,0.01 0.2,0 c 0.2,0 0.8,0.05 0.8,1 0,0.05 0,0.55 -0.6,0.55 -1.7,0 -3.4,-0.16 -5.1,-0.16 -1.7,0 -3.6,0.16 -5.2,0.16 -0.3,0 -0.9,0 -0.9,-1 0,-0.55 0.5,-0.55 0.9,-0.55 2.8,-0.04 3.4,-1.09 3.4,-2.18 0,-0.16 -0.1,-0.91 -0.2,-1.05 l -4.5,-17.8 c -1.6,-6.67 -7.4,-11 -12.4,-11 -3.3,0 -6,2.19 -6,6.47 0,0.11 0,1.7 0.5,3.89 l 4.8,19.38 c 0.5,1.79 0.6,2.29 4.2,2.29 1.3,0 1.7,0 1.7,1 0,0.55 -0.5,0.55 -0.7,0.55 -1.4,0 -5,-0.16 -6.4,-0.16 -1.4,0 -4.9,0.16 -6.4,0.16 -0.4,0 -0.9,0 -0.9,-1 0,-0.55 0.4,-0.55 1.4,-0.55 0.1,0 1,0 1.9,-0.09 0.9,-0.11 1.3,-0.16 1.3,-0.8 0,-0.31 -0.5,-2.39 -0.8,-3.54 l -1.1,-4.38 c -0.5,-1.95 -2.9,-11.36 -3.1,-12.31 -0.3,-1.39 -0.3,-2.14 -0.3,-2.89 0,-6.08 4.5,-9.56 9.7,-9.56 6.3,0 12.5,5.62 14.1,12.2 z"
           id="path5468" /><path
           style="fill:#000000;stroke-width:0"
           inkscape:connector-curvature="0"
           d="m 1083.8,438.76 0.1,-0.01 0.1,-0.01 0.1,-0.01 0.1,-0.02 0,-0.01 0.1,-0.01 0.1,-0.02 0.1,-0.01 0,-0.01 0.1,-0.01 0.1,-0.01 0,-0.01 0.1,-0.01 0,-0.02 0.1,-0.01 0.1,-0.02 0,-0.01 0.1,-0.02 0.1,-0.02 0.1,-0.01 0,-0.02 0.1,-0.02 0.1,-0.03 0.1,-0.02 0.1,-0.02 c 1.1,-0.32 2,-0.53 2.6,-0.53 1.4,0 1.5,1.04 1.5,1.35 0,0.29 -0.1,1.36 -1.5,1.36 -0.6,0 -1.5,-0.2 -2.6,-0.51 -1,-0.28 -1.4,-0.31 -1.9,-0.39 0,1.22 0.3,2.69 0.5,3.76 0.1,0.71 0.4,2.47 0.4,3.69 0,1.05 -0.5,1.61 -1.3,1.61 -0.8,0 -1.4,-0.39 -1.4,-1.61 0,-1.14 0.3,-2.89 0.5,-4.08 0.1,-0.37 0.4,-2.08 0.5,-3.37 -0.6,0.08 -0.9,0.11 -2,0.39 -1.1,0.31 -1.9,0.51 -2.6,0.51 -1.3,0 -1.5,-1.04 -1.5,-1.36 0,-0.28 0.2,-1.35 1.5,-1.35 0.7,0 1.5,0.21 2.6,0.53 1.1,0.26 1.4,0.31 2,0.37 -0.1,-0.87 -0.4,-1.98 -0.5,-2.72 -0.5,-2.15 -0.5,-2.4 -0.5,-4.22 0,-6.71 0.7,-13.86 0.8,-14.56 0,-0.31 0.1,-0.51 0.6,-0.51 0.5,0 0.5,0.2 0.6,0.68 0,0.05 0.3,3.08 0.4,5.21 0.2,3.06 0.3,6.12 0.3,9.18 0,1.82 0,2.07 -0.5,4.3 0,0.38 -0.4,1.77 -0.4,2.64 z"
           id="path5470" /><path
           style="fill:#000000;stroke-width:0"
           inkscape:connector-curvature="0"
           d="m 1103.3,441.78 0,0.16 0,0.17 0,0.16 0,0.08 0,0.08 0,0.08 -0.1,0.08 0,0.07 0,0.07 0,0.07 0,0.07 0,0.07 0,0.06 -0.1,0.06 0,0.06 0,0.06 -0.1,0.05 0,0.05 0,0.05 -0.1,0.04 0,0.04 -0.1,0.01 0,0.02 0,0.02 -0.1,0.01 0,0.01 0,0.02 -0.1,0.01 0,0.01 0,0.01 -0.1,0.01 0,0 0,0.01 -0.1,0 0,0.01 -0.1,0 0,0 c -1,0 -1,-0.89 -1,-1.78 v -46.24 c 0,-0.9 0,-1.79 1,-1.79 1,0 1,0.89 1,1.79 z"
           id="path5472" /><path
           style="fill:#000000;stroke-width:0"
           inkscape:connector-curvature="0"
           d="m 1133.2,439.48 0,0.02 0,0.02 0,0.04 0,0.04 0,0.05 0,0.04 0,0.05 0,0.05 0.1,0.05 0,0.05 0,0.05 0,0.05 0,0.05 0,0.05 0,0.04 0,0.05 0,0.03 0,0.02 c 0,0.5 -0.3,0.55 -0.6,0.55 -0.5,0 -0.5,-0.11 -0.7,-1 l -8.3,-32.94 c -3.8,0.45 -5.7,2.3 -5.7,5.59 0,0.99 0,2.28 2.7,9.27 0.2,0.59 0.6,1.44 0.6,2.44 0,2.23 -1.6,4.07 -4.1,4.07 -4.8,0 -6.6,-7.21 -6.6,-7.67 0,-0.5 0.5,-0.5 0.6,-0.5 0.5,0 0.6,0.11 0.8,0.91 1.3,4.73 3.3,6.17 5,6.17 0.4,0 1.3,0 1.3,-1.59 0,-1.3 -0.5,-2.53 -1.2,-4.28 -2.4,-6.29 -2.4,-7.58 -2.4,-8.43 0,-4.73 3.9,-6.78 8.7,-7.07 -0.4,-1.79 -0.4,-1.89 -1.1,-4.54 -0.1,-0.54 -1.1,-4.57 -1.1,-4.73 0,-0.05 0,-0.5 0.6,-0.5 0.1,0 0.3,0 0.4,0.2 0.2,0.1 0.5,1.35 0.6,2.05 l 1.9,7.42 c 1.9,0 6.2,0 10.9,5.33 2.1,2.3 3.1,4.48 3.6,5.98 0.5,1.24 1.6,5.58 1.6,7.77 0,2.8 -1.4,3.48 -2.2,3.48 -1.2,0 -2.5,-1.29 -2.5,-2.39 0,-0.64 0.3,-0.93 0.8,-1.34 0.5,-0.55 1.8,-1.84 1.8,-4.23 0,-3.19 -2.6,-7.27 -4.4,-9.07 -4.4,-4.43 -7.5,-4.43 -9.4,-4.43 z"
           id="path5474" /><path
           style="fill:#000000;stroke-width:0"
           inkscape:connector-curvature="0"
           d="m 1159.8,394.25 0,0.02 0,0.03 0,0.01 0,0.02 0,0.01 0,0.02 0,0.01 0,0.02 0,0.02 0,0.02 0,0.02 0,0.03 0,0.02 -0.1,0.03 0,0.03 0,0.03 0,0.03 -0.1,0.04 0,0.02 0,0.02 0,0.02 0,0.02 -0.1,0.02 0,0.03 0,0.02 0,0.02 0,0.03 -0.1,0.02 0,0.03 0,0.03 0,0.03 -0.1,0.03 0,0.03 0,0.03 -0.1,0.03 0,0.03 0,0.04 -0.1,0.03 0,0.04 0,0.03 -0.1,0.04 0,0.04 c -6.2,6.28 -7.8,15.69 -7.8,23.31 0,8.67 1.9,17.35 8,23.56 0.6,0.61 0.6,0.71 0.6,0.86 0,0.35 -0.1,0.49 -0.4,0.49 -0.5,0 -5,-3.38 -8,-9.7 -2.5,-5.49 -3.1,-11.02 -3.1,-15.21 0,-3.89 0.5,-9.9 3.3,-15.54 3,-6.13 7.3,-9.36 7.8,-9.36 0.3,0 0.4,0.14 0.4,0.5 z"
           id="path5476" /><path
           style="fill:#000000;stroke-width:0"
           inkscape:connector-curvature="0"
           d="m 1185.6,422.14 0,0.74 0,0.75 0,0.75 -0.1,0.74 0,0.75 -0.1,0.74 -0.1,0.74 -0.1,0.73 -0.1,0.73 -0.1,0.73 -0.2,0.72 -0.2,0.72 -0.2,0.72 -0.2,0.7 -0.3,0.7 -0.2,0.35 -0.1,0.34 c -2.3,4.8 -6.4,5.6 -8.5,5.6 -3,0 -6.6,-1.3 -8.7,-5.94 -1.5,-3.44 -1.8,-7.33 -1.8,-11.31 0,-3.74 0.2,-8.22 2.3,-12 2.1,-4.03 5.7,-5.03 8.2,-5.03 v 1.09 c -2,0 -4.9,1.25 -5.8,6.03 -0.5,2.98 -0.5,7.56 -0.5,10.52 0,3.18 0,6.46 0.4,9.15 0.9,5.94 4.6,6.38 5.9,6.38 1.6,0 4.9,-0.89 5.8,-5.83 0.5,-2.78 0.5,-6.58 0.5,-9.7 0,-3.75 0,-7.13 -0.5,-10.32 -0.7,-4.73 -3.6,-6.23 -5.8,-6.23 h 0 v -1.09 c 2.7,0 6.5,1.04 8.7,5.78 1.5,3.43 1.8,7.31 1.8,11.25 z"
           id="path5478" /><path
           style="fill:#000000;stroke-width:0"
           inkscape:connector-curvature="0"
           d="m 1202,418.65 0,0.37 0,0.39 0,0.39 0,0.41 0,0.84 -0.1,0.88 -0.1,0.92 -0.1,0.95 -0.1,0.97 -0.2,1.01 -0.2,1.02 -0.2,1.03 -0.3,1.05 -0.3,1.06 -0.3,1.07 -0.4,1.07 -0.2,0.53 -0.3,0.53 -0.2,0.53 -0.3,0.53 c -2.9,6.12 -7.2,9.36 -7.7,9.36 -0.3,0 -0.5,-0.19 -0.5,-0.49 0,-0.15 0,-0.25 0.9,-1.15 4.9,-4.92 7.7,-12.85 7.7,-23.27 0,-8.51 -1.8,-17.28 -8,-23.56 -0.6,-0.59 -0.6,-0.7 -0.6,-0.84 0,-0.3 0.2,-0.5 0.5,-0.5 0.5,0 4.9,3.39 7.9,9.71 2.5,5.47 3.1,11 3.1,15.19 z"
           id="path5480" /><path
           style="fill:#000000;stroke-width:0"
           inkscape:connector-curvature="0"
           d="m 1220.5,417.81 0.1,0.03 0,0.02 0,0.03 0,0.02 0,0.03 0,0.02 0,0.03 0,0.02 0,0.02 0,0.02 0,0.02 0.1,0.03 0,0.03 0,0.04 0,0.04 0,0.03 0,0.03 0,0.03 0,0.03 0,0.02 0.1,0.03 0,0.02 0,0.02 0,0.02 0,0.02 0,0.02 0,0.02 0,0.01 0,0.02 0,0.01 0,0.02 0,0.01 0,0.03 0,0.03 0,0.02 c 0,0.16 0,0.25 -0.3,0.85 l -8.7,22.92 c -0.3,0.84 -0.6,1.14 -1.1,1.14 -0.6,0 -1,-0.44 -1,-0.99 0,-0.15 0,-0.25 0.2,-0.79 l 8.9,-23.13 -8.9,-23.01 c -0.2,-0.55 -0.2,-0.64 -0.2,-0.89 0,-0.55 0.4,-1 1,-1 0.6,0 0.8,0.5 1,1 z"
           id="path5482" /></g>    </g>
    <path
       inkscape:connector-curvature="0"
       id="path4945-82-5-5-3-7-7-4-4"
       d="m -3.6247257,303.36218 c 487.2494657,0 487.2494657,0 487.2494657,0"
       style="fill:none;stroke:#000000;stroke-width:1px;stroke-linecap:butt;stroke-linejoin:miter;stroke-opacity:1" />
    <path
       inkscape:connector-curvature="0"
       id="path4841-0-4-6-16-6-4"
       d="m -190.37521,548.22054 0,72.4192"
       style="fill:none;stroke:#000000;stroke-width:0.99999994px;stroke-linecap:butt;stroke-linejoin:miter;stroke-opacity:1" />
    <path
       inkscape:connector-curvature="0"
       id="path4841-2-6-5-5"
       d="m -190.29421,205.80424 0,57.6744"
       style="fill:none;stroke:#000000;stroke-width:0.99999994px;stroke-linecap:butt;stroke-linejoin:miter;stroke-opacity:1" />
    <path
       inkscape:connector-curvature="0"
       id="path4841-3-2-5"
       d="m -187.56421,34.715442 0,57.67454"
       style="fill:#ff7f2a;stroke:#000000;stroke-width:0.99999994px;stroke-linecap:butt;stroke-linejoin:miter;stroke-opacity:1" />
    <path
       inkscape:connector-curvature="0"
       id="path4841-2-6-5-89-5"
       d="m -190.41371,260.88774 0,57.6745"
       style="fill:none;stroke:#000000;stroke-width:0.99999994px;stroke-linecap:butt;stroke-linejoin:miter;stroke-opacity:1" />
    <path
       inkscape:connector-curvature="0"
       id="path4841-0-4-6-2"
       d="m -189.2496,97.878702 0,57.674538"
       style="fill:none;stroke:#000000;stroke-width:0.99999994px;stroke-linecap:butt;stroke-linejoin:miter;stroke-opacity:1" />
    <path
       transform="matrix(-0.55195849,0,0,0.62111069,208.26887,64.526502)"
       d="m 745.71431,-69.066391 c 0,16.568543 -12.79186,30 -28.57143,30 -15.77956,0 -28.57142,-13.431457 -28.57142,-30 0,-16.568542 12.79186,-30 28.57142,-30 15.77957,0 28.57143,13.431458 28.57143,30 z"
       sodipodi:ry="30"
       sodipodi:rx="28.571428"
       sodipodi:cy="-69.066391"
       sodipodi:cx="717.14288"
       id="path4065-2-8-4"
       style="fill:#ff7f2a;fill-opacity:1;stroke:#ffffff;stroke-width:6.31922817;stroke-miterlimit:4;stroke-dasharray:none;stroke-dashoffset:6.3699997"
       sodipodi:type="arc" />
    <path
       d="m 745.71431,-69.066391 c 0,16.568543 -12.79186,30 -28.57143,30 -15.77956,0 -28.57142,-13.431457 -28.57142,-30 0,-16.568542 12.79186,-30 28.57142,-30 15.77957,0 28.57143,13.431458 28.57143,30 z"
       sodipodi:ry="30"
       sodipodi:rx="28.571428"
       sodipodi:cy="-69.066391"
       sodipodi:cx="717.14288"
       id="path4065-5-37-8-4"
       style="fill:#ff7f2a;fill-opacity:1;stroke:#ffffff;stroke-width:6.31922817;stroke-miterlimit:4;stroke-dasharray:none;stroke-dashoffset:6.3699997"
       sodipodi:type="arc"
       transform="matrix(-0.55195849,0,0,0.62111069,206.16967,127.41255)" />
    <path
       inkscape:connector-curvature="0"
       id="path4841-7-9-4-5-5"
       d="m -187.58451,154.00554 0,57.6746"
       style="fill:none;stroke:#000000;stroke-width:0.99999994px;stroke-linecap:butt;stroke-linejoin:miter;stroke-opacity:1" />
    <path
       d="m 745.71431,-69.066391 c 0,16.568543 -12.79186,30 -28.57143,30 -15.77956,0 -28.57142,-13.431457 -28.57142,-30 0,-16.568542 12.79186,-30 28.57142,-30 15.77957,0 28.57143,13.431458 28.57143,30 z"
       sodipodi:ry="30"
       sodipodi:rx="28.571428"
       sodipodi:cy="-69.066391"
       sodipodi:cx="717.14288"
       id="path4065-0-2-4-1"
       style="fill:#ff7f2a;fill-opacity:1;stroke:#ffffff;stroke-width:6.31922817;stroke-miterlimit:4;stroke-dasharray:none;stroke-dashoffset:6.3699997"
       sodipodi:type="arc"
       transform="matrix(-0.55195849,0,0,0.62111069,206.96747,235.49714)" />
    <path
       d="m 745.71431,-69.066391 c 0,16.568543 -12.79186,30 -28.57143,30 -15.77956,0 -28.57142,-13.431457 -28.57142,-30 0,-16.568542 12.79186,-30 28.57142,-30 15.77957,0 28.57143,13.431458 28.57143,30 z"
       sodipodi:ry="30"
       sodipodi:rx="28.571428"
       sodipodi:cy="-69.066391"
       sodipodi:cx="717.14288"
       id="path4065-5-3-6-9-0"
       style="fill:#ff7f2a;fill-opacity:1;stroke:#ffffff;stroke-width:6.31922817;stroke-miterlimit:4;stroke-dasharray:none;stroke-dashoffset:6.3699997"
       sodipodi:type="arc"
       transform="matrix(-0.55195849,0,0,0.62111069,205.25317,297.46704)" />
    <path
       d="m 745.71431,-69.066391 c 0,16.568543 -12.79186,30 -28.57143,30 -15.77956,0 -28.57142,-13.431457 -28.57142,-30 0,-16.568542 12.79186,-30 28.57142,-30 15.77957,0 28.57143,13.431458 28.57143,30 z"
       sodipodi:ry="30"
       sodipodi:rx="28.571428"
       sodipodi:cy="-69.066391"
       sodipodi:cx="717.14288"
       id="path4065-5-0-4-0-4-3"
       style="fill:#ff7f2a;fill-opacity:1;stroke:#ffffff;stroke-width:6.31922817;stroke-miterlimit:4;stroke-dasharray:none;stroke-dashoffset:6.3699997"
       sodipodi:type="arc"
       transform="matrix(-0.55195849,0,0,0.62111069,207.70927,187.07124)" />
    <path
       inkscape:connector-curvature="0"
       id="path4841-3-2-8-1"
       d="m -190.39291,375.88674 0,57.6744"
       style="fill:#ff7f2a;stroke:#000000;stroke-width:0.99999994px;stroke-linecap:butt;stroke-linejoin:miter;stroke-opacity:1" />
    <path
       inkscape:connector-curvature="0"
       id="path4945-0-8-4-8-2-8-0"
       d="m -131.79921,476.79404 c -46.3424,0 -46.3424,0 -46.3424,0"
       style="fill:none;stroke:#000000;stroke-width:0.99999994px;stroke-linecap:butt;stroke-linejoin:miter;stroke-opacity:1" />
    <path
       inkscape:connector-curvature="0"
       id="path4945-0-8-4-3-8-7-0-5"
       d="m -132.83781,523.52014 c -54.8005,0 -54.8005,0 -54.8005,0"
       style="fill:none;stroke:#000000;stroke-width:0.99999994px;stroke-linecap:butt;stroke-linejoin:miter;stroke-opacity:1" />
    <path
       inkscape:connector-curvature="0"
       id="path4945-0-8-1-6-7-0"
       d="m -131.69586,423.52694 c -49.4056,0 -49.4056,0 -49.4056,0"
       style="fill:none;stroke:#000000;stroke-width:0.99999994px;stroke-linecap:butt;stroke-linejoin:miter;stroke-opacity:1" />
    <path
       inkscape:connector-curvature="0"
       id="path4945-0-5-6-9-8"
       d="m -131.56661,358.10194 c -50.9373,0 -50.9373,0 -50.9373,0"
       style="fill:none;stroke:#000000;stroke-width:0.99999994px;stroke-linecap:butt;stroke-linejoin:miter;stroke-opacity:1" />
    <path
       inkscape:connector-curvature="0"
       id="path4945-1-0-3-0"
       d="m -136.87166,309.73154 c -55.5324,0 -55.5324,0 -55.5324,0"
       style="fill:none;stroke:#000000;stroke-width:0.99999994px;stroke-linecap:butt;stroke-linejoin:miter;stroke-opacity:1" />
    <path
       inkscape:connector-curvature="0"
       id="path4841-0-4-6-1-14"
       d="m -192.07831,439.04984 0,57.6746"
       style="fill:none;stroke:#000000;stroke-width:0.99999994px;stroke-linecap:butt;stroke-linejoin:miter;stroke-opacity:1" />
    <path
       inkscape:connector-curvature="0"
       id="path4841-7-8-9-8-8"
       d="m -188.96891,322.26444 0,45.0365"
       style="fill:none;stroke:#000000;stroke-width:0.99999994px;stroke-linecap:butt;stroke-linejoin:miter;stroke-opacity:1" />
    <path
       transform="matrix(-0.55195849,0,0,0.62111069,205.44017,403.69764)"
       d="m 745.71431,-69.066391 c 0,16.568543 -12.79186,30 -28.57143,30 -15.77956,0 -28.57142,-13.431457 -28.57142,-30 0,-16.568542 12.79186,-30 28.57142,-30 15.77957,0 28.57143,13.431458 28.57143,30 z"
       sodipodi:ry="30"
       sodipodi:rx="28.571428"
       sodipodi:cy="-69.066391"
       sodipodi:cx="717.14288"
       id="path4065-2-8-0-0"
       style="fill:#ff7f2a;fill-opacity:1;stroke:#ffffff;stroke-width:6.31922817;stroke-miterlimit:4;stroke-dasharray:none;stroke-dashoffset:6.3699997"
       sodipodi:type="arc" />
    <path
       d="m 745.71431,-69.066391 c 0,16.568543 -12.79186,30 -28.57143,30 -15.77956,0 -28.57142,-13.431457 -28.57142,-30 0,-16.568542 12.79186,-30 28.57142,-30 15.77957,0 28.57143,13.431458 28.57143,30 z"
       sodipodi:ry="30"
       sodipodi:rx="28.571428"
       sodipodi:cy="-69.066391"
       sodipodi:cx="717.14288"
       id="path4065-5-37-8-2-94"
       style="fill:#ff7f2a;fill-opacity:1;stroke:#ffffff;stroke-width:6.31922817;stroke-miterlimit:4;stroke-dasharray:none;stroke-dashoffset:6.3699997"
       sodipodi:type="arc"
       transform="matrix(-0.55195849,0,0,0.62111069,203.34097,468.58364)" />
    <path
       d="m 745.71431,-69.066391 c 0,16.568543 -12.79186,30 -28.57143,30 -15.77956,0 -28.57142,-13.431457 -28.57142,-30 0,-16.568542 12.79186,-30 28.57142,-30 15.77957,0 28.57143,13.431458 28.57143,30 z"
       sodipodi:ry="30"
       sodipodi:rx="28.571428"
       sodipodi:cy="-69.066391"
       sodipodi:cx="717.14288"
       id="path4065-5-0-45-2-4-7"
       style="fill:#ff7f2a;fill-opacity:1;stroke:#ffffff;stroke-width:6.31922817;stroke-miterlimit:4;stroke-dasharray:none;stroke-dashoffset:6.3699997"
       sodipodi:type="arc"
       transform="matrix(-0.55195849,0,0,0.62111069,206.70177,353.87334)" />
    <path
       inkscape:connector-curvature="0"
       id="path4841-7-9-4-5-1-5"
       d="m -190.41321,495.17674 0,57.6746"
       style="fill:none;stroke:#000000;stroke-width:0.99999994px;stroke-linecap:butt;stroke-linejoin:miter;stroke-opacity:1" />
    <path
       d="m 745.71431,-69.066391 c 0,16.568543 -12.79186,30 -28.57143,30 -15.77956,0 -28.57142,-13.431457 -28.57142,-30 0,-16.568542 12.79186,-30 28.57142,-30 15.77957,0 28.57143,13.431458 28.57143,30 z"
       sodipodi:ry="30"
       sodipodi:rx="28.571428"
       sodipodi:cy="-69.066391"
       sodipodi:cx="717.14288"
       id="path4065-0-2-4-6-5"
       style="fill:#ff7f2a;fill-opacity:1;stroke:#ffffff;stroke-width:6.31922817;stroke-miterlimit:4;stroke-dasharray:none;stroke-dashoffset:6.3699997"
       sodipodi:type="arc"
       transform="matrix(-0.55195849,0,0,0.62111069,204.13877,568.66834)" />
    <path
       d="m 745.71431,-69.066391 c 0,16.568543 -12.79186,30 -28.57143,30 -15.77956,0 -28.57142,-13.431457 -28.57142,-30 0,-16.568542 12.79186,-30 28.57142,-30 15.77957,0 28.57143,13.431458 28.57143,30 z"
       sodipodi:ry="30"
       sodipodi:rx="28.571428"
       sodipodi:cy="-69.066391"
       sodipodi:cx="717.14288"
       id="path4065-5-0-4-0-4-9-9"
       style="fill:#ff7f2a;fill-opacity:1;stroke:#ffffff;stroke-width:6.31922817;stroke-miterlimit:4;stroke-dasharray:none;stroke-dashoffset:6.3699997"
       sodipodi:type="arc"
       transform="matrix(-0.55195849,0,0,0.62111069,204.88057,522.24234)" />
    <path
       inkscape:connector-curvature="0"
       id="path4841-2-6-5-88-2"
       d="m -194.27991,875.55524 0,57.6746"
       style="fill:none;stroke:#000000;stroke-width:0.99999994px;stroke-linecap:butt;stroke-linejoin:miter;stroke-opacity:1" />
    <path
       inkscape:connector-curvature="0"
       id="path4841-3-2-2-5"
       d="m -191.54991,704.46674 0,57.6745"
       style="fill:#ff7f2a;stroke:#000000;stroke-width:0.99999994px;stroke-linecap:butt;stroke-linejoin:miter;stroke-opacity:1" />
    <path
       inkscape:connector-curvature="0"
       id="path4841-2-6-5-89-3-2"
       d="m -194.39941,930.63894 0,57.6745"
       style="fill:none;stroke:#000000;stroke-width:0.99999994px;stroke-linecap:butt;stroke-linejoin:miter;stroke-opacity:1" />
    <path
       inkscape:connector-curvature="0"
       id="path4945-0-8-4-8-2-2-3"
       d="m -132.95621,805.37404 c -46.3424,0 -46.3424,0 -46.3424,0"
       style="fill:none;stroke:#000000;stroke-width:0.99999994px;stroke-linecap:butt;stroke-linejoin:miter;stroke-opacity:1" />
    <path
       inkscape:connector-curvature="0"
       id="path4945-0-8-4-3-8-7-6-5"
       d="m -140.99361,852.10014 c -47.8741,0 -47.8741,0 -47.8741,0"
       style="fill:none;stroke:#000000;stroke-width:0.99999994px;stroke-linecap:butt;stroke-linejoin:miter;stroke-opacity:1" />
    <path
       inkscape:connector-curvature="0"
       id="path4945-0-8-1-6-82-6"
       d="m -132.85281,748.10714 c -49.4057,0 -49.4057,0 -49.4057,0"
       style="fill:none;stroke:#000000;stroke-width:0.99999994px;stroke-linecap:butt;stroke-linejoin:miter;stroke-opacity:1" />
    <path
       inkscape:connector-curvature="0"
       id="path4945-0-5-6-1-7"
       d="m -132.72356,688.68184 c -50.9374,0 -50.9374,0 -50.9374,0"
       style="fill:none;stroke:#000000;stroke-width:0.99999994px;stroke-linecap:butt;stroke-linejoin:miter;stroke-opacity:1" />
    <path
       inkscape:connector-curvature="0"
       id="path4945-1-0-7-1"
       d="m -138.02861,636.31164 c -55.5325,0 -55.5325,0 -55.5325,0"
       style="fill:none;stroke:#000000;stroke-width:0.99999994px;stroke-linecap:butt;stroke-linejoin:miter;stroke-opacity:1" />
    <path
       inkscape:connector-curvature="0"
       id="path4841-0-4-6-16-61"
       d="m -193.23531,767.62984 0,57.6746"
       style="fill:none;stroke:#000000;stroke-width:0.99999994px;stroke-linecap:butt;stroke-linejoin:miter;stroke-opacity:1" />
    <path
       inkscape:connector-curvature="0"
       id="path4841-7-8-9-2-4"
       d="m -190.12591,650.84434 0,45.0365"
       style="fill:none;stroke:#000000;stroke-width:0.99999994px;stroke-linecap:butt;stroke-linejoin:miter;stroke-opacity:1" />
    <path
       transform="matrix(-0.55195849,0,0,0.62111069,204.28317,734.27764)"
       d="m 745.71431,-69.066391 c 0,16.568543 -12.79186,30 -28.57143,30 -15.77956,0 -28.57142,-13.431457 -28.57142,-30 0,-16.568542 12.79186,-30 28.57142,-30 15.77957,0 28.57143,13.431458 28.57143,30 z"
       sodipodi:ry="30"
       sodipodi:rx="28.571428"
       sodipodi:cy="-69.066391"
       sodipodi:cx="717.14288"
       id="path4065-2-8-16-5"
       style="fill:#ff7f2a;fill-opacity:1;stroke:#ffffff;stroke-width:6.31922817;stroke-miterlimit:4;stroke-dasharray:none;stroke-dashoffset:6.3699997"
       sodipodi:type="arc" />
    <path
       d="m 745.71431,-69.066391 c 0,16.568543 -12.79186,30 -28.57143,30 -15.77956,0 -28.57142,-13.431457 -28.57142,-30 0,-16.568542 12.79186,-30 28.57142,-30 15.77957,0 28.57143,13.431458 28.57143,30 z"
       sodipodi:ry="30"
       sodipodi:rx="28.571428"
       sodipodi:cy="-69.066391"
       sodipodi:cx="717.14288"
       id="path4065-5-37-8-41-2"
       style="fill:#ff7f2a;fill-opacity:1;stroke:#ffffff;stroke-width:6.31922817;stroke-miterlimit:4;stroke-dasharray:none;stroke-dashoffset:6.3699997"
       sodipodi:type="arc"
       transform="matrix(-0.55195849,0,0,0.62111069,202.18397,793.16374)" />
    <path
       d="m 745.71431,-69.066391 c 0,16.568543 -12.79186,30 -28.57143,30 -15.77956,0 -28.57142,-13.431457 -28.57142,-30 0,-16.568542 12.79186,-30 28.57142,-30 15.77957,0 28.57143,13.431458 28.57143,30 z"
       sodipodi:ry="30"
       sodipodi:rx="28.571428"
       sodipodi:cy="-69.066391"
       sodipodi:cx="717.14288"
       id="path4065-5-0-45-2-6-2"
       style="fill:#ff7f2a;fill-opacity:1;stroke:#ffffff;stroke-width:6.31922817;stroke-miterlimit:4;stroke-dasharray:none;stroke-dashoffset:6.3699997"
       sodipodi:type="arc"
       transform="matrix(-0.55195849,0,0,0.62111069,205.54477,680.45344)" />
    <path
       inkscape:connector-curvature="0"
       id="path4841-7-9-4-5-49-6"
       d="m -191.57021,823.75674 0,57.6746"
       style="fill:none;stroke:#000000;stroke-width:0.99999994px;stroke-linecap:butt;stroke-linejoin:miter;stroke-opacity:1" />
    <path
       d="m 745.71431,-69.066391 c 0,16.568543 -12.79186,30 -28.57143,30 -15.77956,0 -28.57142,-13.431457 -28.57142,-30 0,-16.568542 12.79186,-30 28.57142,-30 15.77957,0 28.57143,13.431458 28.57143,30 z"
       sodipodi:ry="30"
       sodipodi:rx="28.571428"
       sodipodi:cy="-69.066391"
       sodipodi:cx="717.14288"
       id="path4065-0-2-4-7-4"
       style="fill:#ff7f2a;fill-opacity:1;stroke:#ffffff;stroke-width:6.31922817;stroke-miterlimit:4;stroke-dasharray:none;stroke-dashoffset:6.3699997"
       sodipodi:type="arc"
       transform="matrix(-0.55195849,0,0,0.62111069,202.98177,897.24844)" />
    <path
       d="m 745.71431,-69.066391 c 0,16.568543 -12.79186,30 -28.57143,30 -15.77956,0 -28.57142,-13.431457 -28.57142,-30 0,-16.568542 12.79186,-30 28.57142,-30 15.77957,0 28.57143,13.431458 28.57143,30 z"
       sodipodi:ry="30"
       sodipodi:rx="28.571428"
       sodipodi:cy="-69.066391"
       sodipodi:cx="717.14288"
       id="path4065-5-3-6-9-9-9"
       style="fill:#ff7f2a;fill-opacity:1;stroke:#ffffff;stroke-width:6.31922817;stroke-miterlimit:4;stroke-dasharray:none;stroke-dashoffset:6.3699997"
       sodipodi:type="arc"
       transform="matrix(-0.55195849,0,0,0.62111069,201.26747,955.21834)" />
    <path
       d="m 745.71431,-69.066391 c 0,16.568543 -12.79186,30 -28.57143,30 -15.77956,0 -28.57142,-13.431457 -28.57142,-30 0,-16.568542 12.79186,-30 28.57142,-30 15.77957,0 28.57143,13.431458 28.57143,30 z"
       sodipodi:ry="30"
       sodipodi:rx="28.571428"
       sodipodi:cy="-69.066391"
       sodipodi:cx="717.14288"
       id="path4065-5-0-4-0-4-2-6"
       style="fill:#ff7f2a;fill-opacity:1;stroke:#ffffff;stroke-width:6.31922817;stroke-miterlimit:4;stroke-dasharray:none;stroke-dashoffset:6.3699997"
       sodipodi:type="arc"
       transform="matrix(-0.55195849,0,0,0.62111069,203.72357,850.82244)" />
    <path
       inkscape:connector-curvature="0"
       id="path4841-3-2-8-6-3"
       d="m -196.37861,1045.7475 0,70.3125"
       style="fill:#ff7f2a;stroke:#000000;stroke-width:0.99999994px;stroke-linecap:butt;stroke-linejoin:miter;stroke-opacity:1" />
    <path
       inkscape:connector-curvature="0"
       id="path4841-0-4-6-1-1-8"
       d="m -196.06401,1108.6062 0,35.207"
       style="fill:none;stroke:#000000;stroke-width:1px;stroke-linecap:butt;stroke-linejoin:miter;stroke-opacity:1" />
    <path
       inkscape:connector-curvature="0"
       id="path4841-7-8-9-8-0-2"
       d="m -192.95461,992.01554 0,45.03636"
       style="fill:none;stroke:#000000;stroke-width:0.99999994px;stroke-linecap:butt;stroke-linejoin:miter;stroke-opacity:1" />
    <path
       transform="matrix(-0.55195849,0,0,0.62111069,201.45447,1063.4488)"
       d="m 745.71431,-69.066391 c 0,16.568543 -12.79186,30 -28.57143,30 -15.77956,0 -28.57142,-13.431457 -28.57142,-30 0,-16.568542 12.79186,-30 28.57142,-30 15.77957,0 28.57143,13.431458 28.57143,30 z"
       sodipodi:ry="30"
       sodipodi:rx="28.571428"
       sodipodi:cy="-69.066391"
       sodipodi:cx="717.14288"
       id="path4065-2-8-0-3-1"
       style="fill:#ff7f2a;fill-opacity:1;stroke:#ffffff;stroke-width:6.31922817;stroke-miterlimit:4;stroke-dasharray:none;stroke-dashoffset:6.3699997"
       sodipodi:type="arc" />
    <path
       d="m 745.71431,-69.066391 c 0,16.568543 -12.79186,30 -28.57143,30 -15.77956,0 -28.57142,-13.431457 -28.57142,-30 0,-16.568542 12.79186,-30 28.57142,-30 15.77957,0 28.57143,13.431458 28.57143,30 z"
       sodipodi:ry="30"
       sodipodi:rx="28.571428"
       sodipodi:cy="-69.066391"
       sodipodi:cx="717.14288"
       id="path4065-5-37-8-2-9-4"
       style="fill:#ff7f2a;fill-opacity:1;stroke:#ffffff;stroke-width:6.31922817;stroke-miterlimit:4;stroke-dasharray:none;stroke-dashoffset:6.3699997"
       sodipodi:type="arc"
       transform="matrix(-0.55195849,0,0,0.62111069,199.35527,1122.3349)" />
    <path
       d="m 745.71431,-69.066391 c 0,16.568543 -12.79186,30 -28.57143,30 -15.77956,0 -28.57142,-13.431457 -28.57142,-30 0,-16.568542 12.79186,-30 28.57142,-30 15.77957,0 28.57143,13.431458 28.57143,30 z"
       sodipodi:ry="30"
       sodipodi:rx="28.571428"
       sodipodi:cy="-69.066391"
       sodipodi:cx="717.14288"
       id="path4065-5-0-45-2-4-2-9"
       style="fill:#ff7f2a;fill-opacity:1;stroke:#ffffff;stroke-width:6.31922817;stroke-miterlimit:4;stroke-dasharray:none;stroke-dashoffset:6.3699997"
       sodipodi:type="arc"
       transform="matrix(-0.55195849,0,0,0.62111069,202.71607,1013.6245)" />
    <path
       d="m 745.71431,-69.066391 c 0,16.568543 -12.79186,30 -28.57143,30 -15.77956,0 -28.57142,-13.431457 -28.57142,-30 0,-16.568542 12.79186,-30 28.57142,-30 15.77957,0 28.57143,13.431458 28.57143,30 z"
       sodipodi:ry="30"
       sodipodi:rx="28.571428"
       sodipodi:cy="-69.066391"
       sodipodi:cx="717.14288"
       id="path4065-5-0-4-0-4-9-8-6"
       style="fill:#ff7f2a;fill-opacity:1;stroke:#ffffff;stroke-width:6.31922817;stroke-miterlimit:4;stroke-dasharray:none;stroke-dashoffset:6.3699997"
       sodipodi:type="arc"
       transform="matrix(-0.55195849,0,0,0.62111069,200.89487,1181.9936)" />
    <path
       d="m 745.71431,-69.066391 c 0,16.568543 -12.79186,30 -28.57143,30 -15.77956,0 -28.57142,-13.431457 -28.57142,-30 0,-16.568542 12.79186,-30 28.57142,-30 15.77957,0 28.57143,13.431458 28.57143,30 z"
       sodipodi:ry="30"
       sodipodi:rx="28.571428"
       sodipodi:cy="-69.066391"
       sodipodi:cx="717.14288"
       id="path4065-5-0-4-0-4-9-6-9"
       style="fill:#ff7f2a;fill-opacity:1;stroke:#ffffff;stroke-width:6.31922817;stroke-miterlimit:4;stroke-dasharray:none;stroke-dashoffset:6.3699997"
       sodipodi:type="arc"
       transform="matrix(-0.55195849,0,0,0.62111069,204.52927,624.55664)" />
    <path
       inkscape:connector-curvature="0"
       id="path4945-0-8-4-3-8-7-0-9-0"
       d="m -131.26721,581.48774 c -47.8741,0 -47.8741,0 -47.8741,0"
       style="fill:none;stroke:#000000;stroke-width:0.99999994px;stroke-linecap:butt;stroke-linejoin:miter;stroke-opacity:1" />
    <g
       id="g7328"
       transform="translate(-206.03051,159.42136)">
      <g
         word-spacing="normal"
         letter-spacing="normal"
         font-size-adjust="none"
         font-stretch="normal"
         font-weight="normal"
         font-variant="normal"
         font-style="normal"
         stroke-miterlimit="10.433"
         xml:space="preserve"
         transform="matrix(1.5024286,0,0,-1.5024286,-262.925,1058.1525)"
         id="content"
         style="font-style:normal;font-variant:normal;font-weight:normal;font-stretch:normal;letter-spacing:normal;word-spacing:normal;text-anchor:start;fill:none;stroke:#000000;stroke-linecap:butt;stroke-linejoin:miter;stroke-miterlimit:10.43299961;stroke-opacity:1;stroke-dasharray:none;stroke-dashoffset:0"><path
           id="path7331"
           d="m 494.24,430.21 -0.01,0.59 -0.02,0.58 -0.05,0.57 -0.05,0.56 -0.08,0.55 -0.09,0.53 -0.11,0.52 -0.12,0.51 -0.15,0.5 -0.16,0.48 -0.17,0.46 -0.2,0.45 -0.21,0.43 -0.23,0.42 -0.25,0.4 -0.26,0.38 -0.28,0.37 -0.3,0.34 -0.32,0.32 -0.34,0.31 -0.35,0.28 -0.38,0.26 -0.39,0.24 -0.41,0.22 -0.42,0.19 -0.45,0.17 -0.47,0.15 -0.48,0.12 -0.5,0.09 -0.53,0.07 -0.54,0.04 -0.56,0.01 c -5.18,0 -9.56,-4.18 -9.92,-4.48 -3.98,-3.94 -5.47,-8.42 -5.47,-8.52 0,-0.29 0.25,-0.36 0.5,-0.36 0.94,0 1.74,0.5 2.49,1.05 0.89,0.66 0.95,0.8 1.5,1.95 0.43,0.99 1.59,3.44 3.43,5.54 1.19,1.34 2.19,2.09 4.19,2.09 4.83,0 7.91,-4 7.91,-10.52 0,-10.17 -7.22,-20.23 -16.44,-20.23 -7.08,0 -10.95,5.64 -10.95,12.75 0,6.78 3.48,14.25 10.76,18.55 0.49,0.29 1.99,1.18 1.99,1.84 0,0.34 -0.39,0.34 -0.5,0.34 -1.74,0 -16.49,-7.92 -16.49,-22.87 0,-6.97 3.64,-13.34 11.91,-13.34 9.72,0 23.97,9.76 23.97,25.1 z"
           inkscape:connector-curvature="0"
           style="fill:#000000;stroke-width:0" /></g>    </g>
    <path
       inkscape:connector-curvature="0"
       id="path4945-82-5-5-3-7-7-4-4-3"
       d="m 4.2082042,862.10853 c 467.0875758,0 467.0875758,0 467.0875758,0"
       style="fill:none;stroke:#000000;stroke-width:1.00000024px;stroke-linecap:butt;stroke-linejoin:miter;stroke-opacity:1" />
  </g>
</svg>
